<svg xmlns="http://www.w3.org/2000/svg" viewBox="0 0 1280 333"><path fill="#ae285d" d="M8.69 314.24a.43.42-77.3 0 1-.37-.61c1.19-2.59 2.35-5.17 3.82-7.67q84.9-145.04 169.64-290.15a.38.37 45.2 0 1 .65.01l52.64 90.64a.93.52-53.6 0 1-.1.78q-58.06 103.71-118.45 206.09a1.12.68-67.7 0 1-.77.57l-107.06.34ZM1058.22 129.55q-.5-.43-.5.26l-.28 71.69a.5.44 90 0 1-.44.5h-18.25a.5.49 90 0 1-.49-.5l.03-110.94q0-.82.65-.25l89.19 78.3q.29.25.3-.16c.36-23.66-.22-47.43.69-71.05a.62.55 1.5 0 1 .63-.53l17.81.27a.7.61.5 0 1 .69.61v109.69q0 .81-.52.35l-89.51-78.24ZM436.21 177.48l-13.04 23.95a1.21.89-71.7 0 1-.92.65l-19.5-.31a.54.36-69.6 0 1-.18-.76l61.48-110.2q.37-.66.69-.06l59.17 110.39a.44.41 75.4 0 1-.35.65l-20.31-.03a1.01.49 67.8 0 1-.66-.59l-12.35-23.91a.93.77 74 0 0-.74-.51h-52.25a1.37 1.04-72.3 0 0-1.04.73Zm9.35-17.13a.38.38 9.9 0 0 .33.56l35.3.19a.38.38 76.1 0 0 .34-.56l-17.48-33.03a.38.38 45.6 0 0-.67 0l-17.82 32.84ZM992.65 177.39a1.32 1.18-12.7 0 0-1.15-.64l-52 .07a.85.82-75.3 0 0-.73.44l-12.8 23.97a.98.7-71.5 0 1-.72.52h-19.49a.43.43-75.5 0 1-.37-.64q29.92-55.2 60.96-109.77.62-1.09 1.15-.09l58.86 109.85a.55.35 70.3 0 1-.17.76l-20.19-.08a1.04.51 67.6 0 1-.68-.6l-12.67-23.79Zm-44.43-17.12a.37.37 14.5 0 0 .32.54l35.22.25a.37.37 76.1 0 0 .33-.54l-17.38-33.1a.37.37 45.5 0 0-.65 0l-17.84 32.85ZM687.69 108.19c8.46-10.56 24.26-13.95 37.43-12.62 12.09 1.22 21.66 7.08 28.6 16.81a.5.47 58.4 0 1-.15.71l-14.3 7.4a.61.59 57.5 0 1-.75-.18c-6.82-9.21-19.72-12.88-29.96-7.2-5.77 3.19-8.66 9.43-4.5 15.21 2.24 3.1 9.72 6.07 13.45 7.27q11.79 3.78 22.92 9.19c14.37 6.97 20.78 23.28 14.08 37.86-10.65 23.21-48.27 27.38-66.23 11.48q-9.01-7.98-11.55-20.99a.71.67 79.3 0 1 .53-.83l18.23-3.34a.56.55 80.4 0 1 .64.47c2.49 16.51 16.81 23.06 31.65 16.38 10.7-4.82 13.22-18.52 3.9-26.24q-2.57-2.13-10.51-5.12c-12.65-4.76-31.08-9.36-37.14-23.08q-5.31-12 3.66-23.18ZM576.38 131.65l23.7-33.82a1.72 1.11-65.5 0 1 1.17-.75l21-.07q.91 0 .43.67l-35.2 48.79a.81.68-45.5 0 0-.07.86l36.89 53.88q.42.62-.24.62l-20.56-.06a1.33.51 60.6 0 1-.84-.69l-26.61-38.38a.4.37 46 0 0-.63-.03l-27.6 38.65a1.19.42-58.9 0 1-.75.62l-20.64.01q-.89 0-.4-.68l38.26-53.47a1.18 1.07 46.5 0 0-.03-1.31l-33.47-48.52q-.46-.66.27-.67l20.94-.25a1.19.98 69.6 0 1 .91.53l22.8 33.97a.45.37 47.8 0 0 .67.1Z"/><rect width="19.5" height="104.76" x="-9.75" y="-52.38" fill="#ae285d" rx=".26" transform="rotate(.1 -85268.893 372783.646)"/><path fill="#ae285d" d="M884.69 145.49c18.7 7.2 26.92 27.46 12.9 43.85-13.47 15.75-45.32 12.58-62.29 12.37-1.09-.01-3.19.65-4.73.06a.86.72-81.2 0 1-.47-.77l-.3-103.25a.6.54 89.5 0 1 .53-.6c20.66-.66 51.62-3.09 60.4 18.35 4.06 9.92 2.61 22.28-6.15 29.33q-.51.42.11.66Zm-35.42-32.92c0 9.46-.75 19.4-.12 28.78a.56.56 89.4 0 0 .54.53c9.1.46 22.38-.57 24.75-10.86 3.96-17.09-12.43-19.33-24.67-18.97a.53.51-90 0 0-.5.52Zm.09 72.93a.66.64-89.6 0 0 .62.65q10.8.39 20.51-.68c9.48-1.05 17.22-8.81 14.05-18.65-3.96-12.34-24.33-11.65-34.74-11.01a.55.43-2 0 0-.52.44l.08 29.25ZM1190.21 137.5q.01.89.78.23l46.67-40.33a1.46.73-52.1 0 1 .84-.4h25.25q.94 0 .29.54l-55.8 46.7a.37.28 48.1 0 0 .04.48l55.47 56.28q.58.6-.26.64-12.37.67-24.73-.2a1.67 1.21 63.6 0 1-.95-.5l-43.71-45.04a.8.74 41.8 0 0-1.17.02l-2.37 3.14a1.73 1.28-33.2 0 0-.35.94l-.16 41a1.05 1.01.3 0 1-1.05 1h-18a.75.45-90 0 1-.45-.75l.21-103.75a.5.49-90 0 1 .49-.5h18.25a.55.5 0 0 1 .55.5l.16 40ZM355.25 314.22l-107 .02a1.28 1.21-14.1 0 1-1.09-.61l-64.75-111.8q-.31-.53.34-.53l107.5.23a1 .62 68.2 0 1 .69.51l64.62 111.4q.46.78-.31.78Z"/></svg>