<svg xmlns="http://www.w3.org/2000/svg" viewBox="0 0 602 452"><path fill="#d9261c" d="M260.38 186.62c21.23-31.22 59.76-48.63 97.08-44.33 30.09 3.47 56.43 19.81 74.05 44.48a.3.3 0 0 1-.24.48H407.7a1.19 1.15-21.4 0 1-.84-.35c-34-34.96-87.87-35.27-122.01-.01a1.16 1.15 21.4 0 1-.84.36h-23.3a.4.4 0 0 1-.33-.63Z"/><path fill="#003b70" d="M353.75 204.25h20.59a.65.65 0 0 1 .65.65l.02 18.1a1.01 1.01 0 0 1-1.01 1.01l-20.21-.03a.51.51 0 0 0-.51.51q-.1 28.15.04 56.24c.07 15.61 18.55 9.86 25.83 4.73a.54.54 0 0 1 .84.58l-4.76 18.53a1.13 1.11-9.1 0 1-.5.68c-13.64 8.31-33.05 6.28-39.96-9.56-2.54-5.83-2.29-12.14-2.3-18.81q-.04-26.13-.13-52.26a.62.62 0 0 0-.62-.62H315a.75.75 0 0 1-.75-.75v-18.26a.77.77 0 0 1 .77-.77l16.7.08a.65.65 0 0 0 .66-.6c.54-6.63-.37-13.41.08-20.14a1 .99 77.8 0 1 .51-.8l19.71-10.6a.39.39 0 0 1 .57.34v31.25a.5.5 0 0 0 .5.5ZM228.5 202.81c12.19.81 25.58 6.94 33.03 17.48a.72.71 47.3 0 1-.03.87l-10.93 13.21a1.09 1.09 0 0 1-1.61.08q-14.03-13.97-31.2-10.76c-26.57 4.98-34.31 38.94-16.36 57.1 8.12 8.2 20.66 11.13 31.78 7.71 6.58-2.03 11.29-5.9 16.46-10.28a.48.48 0 0 1 .68.06L261.67 292a.58.57 46.3 0 1-.01.74q-20.08 23.2-50.88 15.98c-32.49-7.62-46.84-38.71-38.11-69.54 7.03-24.81 30.95-38.01 55.83-36.37Z"/><rect width="21.26" height="104.22" x="274.24" y="204.25" fill="#003b70" rx=".49"/><rect width="21.26" height="104.24" x="396.74" y="204.25" fill="#003b70" rx=".47"/></svg>