<svg xmlns="http://www.w3.org/2000/svg" viewBox="0 0 1258 1600"><g fill="none" stroke-width="2"><path stroke="#ff8080" d="m568.61 0 .14 201a1 1 0 0 1-1 1h-363a1 1 0 0 0-1 1v359.71a1 1 0 0 1-1 1L0 563.51M689.44 0q-.77 100.76-.44 201a1.01 1 89.7 0 0 1 1h360.25a1 1 0 0 1 1 1v359.69a1 1 0 0 0 1 1l205.75-.13M1258 682.99l-205.75-.24a1 1 0 0 0-1 1v356.75a1 1 0 0 1-1 1H690a1 1 0 0 0-1 1v166.25a1 1 0 0 0 1 1l568-.1" vector-effect="non-scaling-stroke"/><path stroke="#8099cc" d="m1258 1328.81-1258-.12" vector-effect="non-scaling-stroke"/><path stroke="#ff8080" d="m0 1209.58 567.75.17a1 1 0 0 0 1-1l.04-166.25a1 1 0 0 0-1-1H204.75a1 1 0 0 1-1-1V683.81a1 1 0 0 0-1-1L0 682.94" vector-effect="non-scaling-stroke"/><path stroke="#8099cc" d="M857.25 394.51a.26.26 0 0 0-.26-.26H398.01a.26.26 0 0 0-.26.26v454.48a.26.26 0 0 0 .26.26h458.98a.26.26 0 0 0 .26-.26V394.51M457.87 1447.75c-8.73 55.76 24.74 89.27 79.8 82.87 23.75-2.76 44.05-10.77 51.86-35.63q2.7-8.59 3.13-17.68a.99.99 0 0 0-.99-1.04l-41.35-.05a.99.99 0 0 0-.99.83q-.77 4.58-1.72 7.86c-3.68 12.63-16.4 16.44-28.07 13.48-12.98-3.29-17.97-14.99-19.33-27.08-2.21-19.59 1.41-46.12 26.4-46.87 12-.36 18.47 6.06 19.82 17.81a1.01 1 1.2 0 0 .84.87c2.43.39 5.64-.1 7.21-.1l34.17-.04a1 1 0 0 0 1-1.03q-.94-30.38-25.6-42.55c-13.85-6.83-32.47-8.01-47.95-6.4-31.63 3.27-53.15 22.34-58.23 54.75M1144.65 1529.25a.35.35 0 0 0 .35-.35v-60.04a.35.35 0 0 1 .64-.2l40.76 60.44a.35.35 0 0 0 .29.15h51.55a.35.35 0 0 0 .29-.55l-52.37-76.01a.35.35 0 0 1 .01-.41l45.65-57.72a.35.35 0 0 0-.27-.57h-50.48a.35.35 0 0 0-.28.13l-35.17 44.07a.35.35 0 0 1-.62-.22v-43.62a.35.35 0 0 0-.35-.35h-40.8a.35.35 0 0 0-.35.35v134.55a.35.35 0 0 0 .35.35h40.8M131.47 1443.82a.42.42 0 0 1-.42.42l-45.63.02a.42.42 0 0 1-.42-.42v-49.42a.42.42 0 0 0-.42-.42H43.42a.42.42 0 0 0-.42.42v134.41a.42.42 0 0 0 .42.42h41.16a.42.42 0 0 0 .42-.42v-50.41a.42.42 0 0 1 .42-.42h45.66a.42.42 0 0 1 .42.42v50.41a.42.42 0 0 0 .42.42h41.41a.42.42 0 0 0 .42-.42v-134.41a.42.42 0 0 0-.42-.42h-41.35a.42.42 0 0 0-.42.42l-.09 49.4M326.17 1441.7c-7.57-33.76-33.84-47.42-66.43-47.59q-32.7-.18-65.49-.06a1 1 0 0 0-1 1v133.16a1 .99 0 0 0 1 .99q55.03.23 70.69-.03c28.61-.48 53.04-13.23 60.64-42.59q5.71-22.04.59-44.88M416.56 1446.93q-14.9-.18-29.79.08a1 1 0 0 1-1.02-1v-17.26a1 1 0 0 1 1-1h59a1 1 0 0 0 1-1V1395a1 1 0 0 0-1-1h-101a1 1 0 0 0-1 1v133.25a1 1 0 0 0 1 1h40a1 1 0 0 0 1-1v-46.75a1 1 0 0 1 1-1H441a1 1 0 0 0 1-1v-31.55a1 1 0 0 0-1.01-1q-12.31.13-24.43-.02M769.27 1456.11q1.12-.79 2.88-1.97c14.26-9.54 16.01-29.95 9.02-44.33-6.97-14.32-22.47-15.74-36.68-15.78q-35.46-.09-70.99.01a1.01 1-.3 0 0-1 1v133.17a1 1 0 0 0 1 1q38.09.1 76.18.01c19.46-.05 33.92-5.96 38.46-26.56 2.58-11.72 1.32-26.42-6.5-35.81q-4.88-5.85-12.19-9-1.64-.71-.18-1.74M785.31 1528.62a.44.44 0 0 0 .4.62l41.16.03a.44.44 0 0 0 .41-.28l8.69-22.46a.44.44 0 0 1 .41-.28h54.13a.44.44 0 0 1 .42.29l8.11 22.42a.44.44 0 0 0 .42.29h45.21a.44.44 0 0 0 .4-.61l-56.48-134.37a.44.44 0 0 0-.4-.27h-43.23a.44.44 0 0 0-.41.26l-59.24 134.36M1042.26 1472.77l-45.11-78.27a1.01 1-15 0 0-.87-.5h-48.53a1 1 0 0 0-1 1v133.25a1 1 0 0 0 1 1h37.75a1 1 0 0 0 1-1v-77.5q0-3.09 1.5-.39l43.49 78.38a1.01 1.01 0 0 0 .88.51h50.38a1 1 0 0 0 1-1V1395a1 1 0 0 0-1-1h-38a1 1 0 0 0-1 1v77.37q0 3-1.49.4" vector-effect="non-scaling-stroke"/><path stroke="#8099cc" d="M283.9 1476.43c5.73-23.13-1.11-48.74-29.92-48.77q-8.83-.01-17.75.13a1 1 0 0 0-.98 1v65.67a1 1 0 0 0 .99 1q4.07.03 17.25-.02c13.28-.06 26.86-4.65 30.41-19.01M742.02 1435.75c-.57-5.37-2.98-9.54-8.85-9.94q-3-.21-19.43-.03a1 1 0 0 0-.99 1v19.74a1.01 1 0 0 0 1.01 1q8.29-.06 16.13 0c7.66.06 13.04-3.2 12.13-11.77M736.3 1497.39c14.55-1.09 14.05-22.26.44-22.89q-10.29-.47-23.01-.21a1 1 0 0 0-.98 1v21.17a1 1 0 0 0 .99 1q18.04.26 22.56-.07M849.44 1471.92a.33.33 0 0 0 .3.45l28.67.25a.33.33 0 0 0 .31-.44l-14-37.51a.33.33 0 0 0-.62-.01l-14.66 37.26" vector-effect="non-scaling-stroke"/></g><path fill="red" d="M0 0h568.61l.14 201a1 1 0 0 1-1 1h-363a1 1 0 0 0-1 1v359.71a1 1 0 0 1-1 1L0 563.51V0Z"/><path fill="#fff" d="M568.61 0h120.83q-.77 100.76-.44 201a1.01 1 89.7 0 0 1 1h360.25a1 1 0 0 1 1 1v359.69a1 1 0 0 0 1 1l205.75-.13v119.43l-205.75-.24a1 1 0 0 0-1 1v356.75a1 1 0 0 1-1 1H690a1 1 0 0 0-1 1v166.25a1 1 0 0 0 1 1l568-.1v119.16l-1258-.12v-119.11l567.75.17a1 1 0 0 0 1-1l.04-166.25a1 1 0 0 0-1-1H204.75a1 1 0 0 1-1-1V683.81a1 1 0 0 0-1-1L0 682.94V563.51l202.75.2a1 1 0 0 0 1-1V203a1 1 0 0 1 1-1h363a1 1 0 0 0 1-1l-.14-201Zm288.64 394.51a.26.26 0 0 0-.26-.26H398.01a.26.26 0 0 0-.26.26v454.48a.26.26 0 0 0 .26.26h458.98a.26.26 0 0 0 .26-.26V394.51Z"/><path fill="red" d="M689.44 0H1258v563.56l-205.75.13a1 1 0 0 1-1-1V203a1 1 0 0 0-1-1H690a1.01 1 89.7 0 1-1-1q-.33-100.24.44-201Z"/><rect width="459.5" height="455" x="397.75" y="394.25" fill="#039" rx=".26"/><path fill="red" d="M0 1209.58V682.94l202.75-.13a1 1 0 0 1 1 1v356.69a1 1 0 0 0 1 1h363.04a1 1 0 0 1 1 1l-.04 166.25a1 1 0 0 1-1 1L0 1209.58ZM1258 682.99v526.66l-568 .1a1 1 0 0 1-1-1V1042.5a1 1 0 0 1 1-1h360.25a1 1 0 0 0 1-1V683.75a1 1 0 0 1 1-1l205.75.24Z"/><path fill="#039" d="M1258 1328.81V1600H0v-271.31l1258 .12Zm-800.13 118.94c-8.73 55.76 24.74 89.27 79.8 82.87 23.75-2.76 44.05-10.77 51.86-35.63q2.7-8.59 3.13-17.68a.99.99 0 0 0-.99-1.04l-41.35-.05a.99.99 0 0 0-.99.83q-.77 4.58-1.72 7.86c-3.68 12.63-16.4 16.44-28.07 13.48-12.98-3.29-17.97-14.99-19.33-27.08-2.21-19.59 1.41-46.12 26.4-46.87 12-.36 18.47 6.06 19.82 17.81a1.01 1 1.2 0 0 .84.87c2.43.39 5.64-.1 7.21-.1l34.17-.04a1 1 0 0 0 1-1.03q-.94-30.38-25.6-42.55c-13.85-6.83-32.47-8.01-47.95-6.4-31.63 3.27-53.15 22.34-58.23 54.75Zm686.78 81.5a.35.35 0 0 0 .35-.35v-60.04a.35.35 0 0 1 .64-.2l40.76 60.44a.35.35 0 0 0 .29.15h51.55a.35.35 0 0 0 .29-.55l-52.37-76.01a.35.35 0 0 1 .01-.41l45.65-57.72a.35.35 0 0 0-.27-.57h-50.48a.35.35 0 0 0-.28.13l-35.17 44.07a.35.35 0 0 1-.62-.22v-43.62a.35.35 0 0 0-.35-.35h-40.8a.35.35 0 0 0-.35.35v134.55a.35.35 0 0 0 .35.35h40.8Zm-1013.18-85.43a.42.42 0 0 1-.42.42l-45.63.02a.42.42 0 0 1-.42-.42v-49.42a.42.42 0 0 0-.42-.42H43.42a.42.42 0 0 0-.42.42v134.41a.42.42 0 0 0 .42.42h41.16a.42.42 0 0 0 .42-.42v-50.41a.42.42 0 0 1 .42-.42h45.66a.42.42 0 0 1 .42.42v50.41a.42.42 0 0 0 .42.42h41.41a.42.42 0 0 0 .42-.42v-134.41a.42.42 0 0 0-.42-.42h-41.35a.42.42 0 0 0-.42.42l-.09 49.4Zm194.7-2.12c-7.57-33.76-33.84-47.42-66.43-47.59q-32.7-.18-65.49-.06a1 1 0 0 0-1 1v133.16a1 .99 0 0 0 1 .99q55.03.23 70.69-.03c28.61-.48 53.04-13.23 60.64-42.59q5.71-22.04.59-44.88Zm90.39 5.23q-14.9-.18-29.79.08a1 1 0 0 1-1.02-1v-17.26a1 1 0 0 1 1-1h59a1 1 0 0 0 1-1V1395a1 1 0 0 0-1-1h-101a1 1 0 0 0-1 1v133.25a1 1 0 0 0 1 1h40a1 1 0 0 0 1-1v-46.75a1 1 0 0 1 1-1H441a1 1 0 0 0 1-1v-31.55a1 1 0 0 0-1.01-1q-12.31.13-24.43-.02Zm352.71 9.18q1.12-.79 2.88-1.97c14.26-9.54 16.01-29.95 9.02-44.33-6.97-14.32-22.47-15.74-36.68-15.78q-35.46-.09-70.99.01a1.01 1-.3 0 0-1 1v133.17a1 1 0 0 0 1 1q38.09.1 76.18.01c19.46-.05 33.92-5.96 38.46-26.56 2.58-11.72 1.32-26.42-6.5-35.81q-4.88-5.85-12.19-9-1.64-.71-.18-1.74Zm16.04 72.51a.44.44 0 0 0 .4.62l41.16.03a.44.44 0 0 0 .41-.28l8.69-22.46a.44.44 0 0 1 .41-.28h54.13a.44.44 0 0 1 .42.29l8.11 22.42a.44.44 0 0 0 .42.29h45.21a.44.44 0 0 0 .4-.61l-56.48-134.37a.44.44 0 0 0-.4-.27h-43.23a.44.44 0 0 0-.41.26l-59.24 134.36Zm256.95-55.85-45.11-78.27a1.01 1-15 0 0-.87-.5h-48.53a1 1 0 0 0-1 1v133.25a1 1 0 0 0 1 1h37.75a1 1 0 0 0 1-1v-77.5q0-3.09 1.5-.39l43.49 78.38a1.01 1.01 0 0 0 .88.51h50.38a1 1 0 0 0 1-1V1395a1 1 0 0 0-1-1h-38a1 1 0 0 0-1 1v77.37q0 3-1.49.4Z"/><path fill="#fff" d="M537.67 1530.62c-55.06 6.4-88.53-27.11-79.8-82.87 5.08-32.41 26.6-51.48 58.23-54.75 15.48-1.61 34.1-.43 47.95 6.4q24.66 12.17 25.6 42.55a1 1 0 0 1-1 1.03l-34.17.04c-1.57 0-4.78.49-7.21.1a1.01 1 1.2 0 1-.84-.87c-1.35-11.75-7.82-18.17-19.82-17.81-24.99.75-28.61 27.28-26.4 46.87 1.36 12.09 6.35 23.79 19.33 27.08 11.67 2.96 24.39-.85 28.07-13.48q.95-3.28 1.72-7.86a.99.99 0 0 1 .99-.83l41.35.05a.99.99 0 0 1 .99 1.04q-.43 9.09-3.13 17.68c-7.81 24.86-28.11 32.87-51.86 35.63ZM1144.65 1529.25h-40.8a.35.35 0 0 1-.35-.35v-134.55a.35.35 0 0 1 .35-.35h40.8a.35.35 0 0 1 .35.35v43.62a.35.35 0 0 0 .62.22l35.17-44.07a.35.35 0 0 1 .28-.13h50.48a.35.35 0 0 1 .27.57l-45.65 57.72a.35.35 0 0 0-.01.41l52.37 76.01a.35.35 0 0 1-.29.55h-51.55a.35.35 0 0 1-.29-.15l-40.76-60.44a.35.35 0 0 0-.64.2v60.04a.35.35 0 0 1-.35.35ZM131.47 1443.82l.09-49.4a.42.42 0 0 1 .42-.42h41.35a.42.42 0 0 1 .42.42v134.41a.42.42 0 0 1-.42.42h-41.41a.42.42 0 0 1-.42-.42v-50.41a.42.42 0 0 0-.42-.42H85.42a.42.42 0 0 0-.42.42v50.41a.42.42 0 0 1-.42.42H43.42a.42.42 0 0 1-.42-.42v-134.41a.42.42 0 0 1 .42-.42h41.16a.42.42 0 0 1 .42.42v49.42a.42.42 0 0 0 .42.42l45.63-.02a.42.42 0 0 0 .42-.42ZM259.74 1394.11c32.59.17 58.86 13.83 66.43 47.59q5.12 22.84-.59 44.88c-7.6 29.36-32.03 42.11-60.64 42.59q-15.66.26-70.69.03a1 .99 0 0 1-1-.99v-133.16a1 1 0 0 1 1-1q32.79-.12 65.49.06Zm24.16 82.32c5.73-23.13-1.11-48.74-29.92-48.77q-8.83-.01-17.75.13a1 1 0 0 0-.98 1v65.67a1 1 0 0 0 .99 1q4.07.03 17.25-.02c13.28-.06 26.86-4.65 30.41-19.01ZM416.56 1446.93q12.12.15 24.43.02a1 1 0 0 1 1.01 1v31.55a1 1 0 0 1-1 1h-54.25a1 1 0 0 0-1 1v46.75a1 1 0 0 1-1 1h-40a1 1 0 0 1-1-1V1395a1 1 0 0 1 1-1h101a1 1 0 0 1 1 1v31.75a1 1 0 0 1-1 1h-59a1 1 0 0 0-1 1v17.26a1 1 0 0 0 1.02 1q14.89-.26 29.79-.08ZM769.45 1457.85q7.31 3.15 12.19 9c7.82 9.39 9.08 24.09 6.5 35.81-4.54 20.6-19 26.51-38.46 26.56q-38.09.09-76.18-.01a1 1 0 0 1-1-1v-133.17a1.01 1-.3 0 1 1-1q35.53-.1 70.99-.01c14.21.04 29.71 1.46 36.68 15.78 6.99 14.38 5.24 34.79-9.02 44.33q-1.76 1.18-2.88 1.97-1.46 1.03.18 1.74Zm-27.43-22.1c-.57-5.37-2.98-9.54-8.85-9.94q-3-.21-19.43-.03a1 1 0 0 0-.99 1v19.74a1.01 1 0 0 0 1.01 1q8.29-.06 16.13 0c7.66.06 13.04-3.2 12.13-11.77Zm-5.72 61.64c14.55-1.09 14.05-22.26.44-22.89q-10.29-.47-23.01-.21a1 1 0 0 0-.98 1v21.17a1 1 0 0 0 .99 1q18.04.26 22.56-.07ZM785.31 1528.62l59.24-134.36a.44.44 0 0 1 .41-.26h43.23a.44.44 0 0 1 .4.27l56.48 134.37a.44.44 0 0 1-.4.61h-45.21a.44.44 0 0 1-.42-.29l-8.11-22.42a.44.44 0 0 0-.42-.29h-54.13a.44.44 0 0 0-.41.28l-8.69 22.46a.44.44 0 0 1-.41.28l-41.16-.03a.44.44 0 0 1-.4-.62Zm64.13-56.7a.33.33 0 0 0 .3.45l28.67.25a.33.33 0 0 0 .31-.44l-14-37.51a.33.33 0 0 0-.62-.01l-14.66 37.26ZM1043.75 1472.37V1395a1 1 0 0 1 1-1h38a1 1 0 0 1 1 1v133.25a1 1 0 0 1-1 1h-50.38a1.01 1.01 0 0 1-.88-.51L988 1450.36q-1.5-2.7-1.5.39v77.5a1 1 0 0 1-1 1h-37.75a1 1 0 0 1-1-1V1395a1 1 0 0 1 1-1h48.53a1.01 1-15 0 1 .87.5l45.11 78.27q1.49 2.6 1.49-.4Z"/><path fill="#039" d="M733.17 1425.81c5.87.4 8.28 4.57 8.85 9.94.91 8.57-4.47 11.83-12.13 11.77q-7.84-.06-16.13 0a1.01 1 0 0 1-1.01-1v-19.74a1 1 0 0 1 .99-1q16.43-.18 19.43.03ZM253.98 1427.66c28.81.03 35.65 25.64 29.92 48.77-3.55 14.36-17.13 18.95-30.41 19.01q-13.18.05-17.25.02a1 1 0 0 1-.99-1v-65.67a1 1 0 0 1 .98-1q8.92-.14 17.75-.13ZM849.44 1471.92l14.66-37.26a.33.33 0 0 1 .62.01l14 37.51a.33.33 0 0 1-.31.44l-28.67-.25a.33.33 0 0 1-.3-.45ZM736.74 1474.5c13.61.63 14.11 21.8-.44 22.89q-4.52.33-22.56.07a1 1 0 0 1-.99-1v-21.17a1 1 0 0 1 .98-1q12.72-.26 23.01.21Z"/></svg>