<svg xmlns="http://www.w3.org/2000/svg" viewBox="0 0 1100 757"><g fill="none" stroke-width="2"><path stroke="#e71d1c" d="M381.79 232.25q-.59 4.98-.04 9.96" vector-effect="non-scaling-stroke"/><path stroke="#f38e8e" d="M381.75 242.21q.09.67.09 1.35.11 118.22.12 236.44" vector-effect="non-scaling-stroke"/><path stroke="#e71d1c" d="M381.96 480c-.89.91-.42 13.51-.41 15.69q0 .44.15.03l.26-.72" vector-effect="non-scaling-stroke"/><path stroke="#f38e8e" d="m381.96 495-.24 49.81q-.01 2.05 1.44.6l166.37-166.29a.54.54 0 0 1 .76 0L717 545.55q1.27 1.27 1.27-.53-.46-135.52-.22-270.98c.01-4.65.38-62.03-.22-62.49a.39.39 0 0 0-.52.03L550.75 377.79a1.29 1.29 0 0 1-1.82 0L382.55 211.43q-.8-.8-.8.33l.04 20.49M381.96 495v-15" vector-effect="non-scaling-stroke"/><path stroke="#f38e8e" d="M381.75 242.21q.59-4.98.04-9.96" vector-effect="non-scaling-stroke"/></g><path fill="#e71d1c" d="M219.64 372.39q80.9-80.82 161.8-161.69a1.53 1.49 21.7 0 1 1.08-.45h333.73q1.86 0 3.18 1.32l167.02 167a.28.28 0 0 1 0 .4L718.63 546.63a1.23 1.22 21.9 0 1-.88.37H382.23a1.28 1.26-22.1 0 1-.9-.37L213.68 379.25a.71.71 0 0 1 .01-1.02q2.91-2.8 5.95-5.84Zm162.15-140.14q-.59 4.98-.04 9.96.09.67.09 1.35.11 118.22.12 236.44c-.89.91-.42 13.51-.41 15.69q0 .44.15.03l.26-.72-.24 49.81q-.01 2.05 1.44.6l166.37-166.29a.54.54 0 0 1 .76 0L717 545.55q1.27 1.27 1.27-.53-.46-135.52-.22-270.98c.01-4.65.38-62.03-.22-62.49a.39.39 0 0 0-.52.03L550.75 377.79a1.29 1.29 0 0 1-1.82 0L382.55 211.43q-.8-.8-.8.33l.04 20.49Z"/><path fill="#fff" d="M381.96 495v-15q-.01-118.22-.12-236.44 0-.68-.09-1.35.59-4.98.04-9.96l-.04-20.49q0-1.13.8-.33l166.38 166.36a1.29 1.29 0 0 0 1.82 0l166.56-166.21a.39.39 0 0 1 .52-.03c.6.46.23 57.84.22 62.49q-.24 135.46.22 270.98 0 1.8-1.27.53L550.29 379.12a.54.54 0 0 0-.76 0L383.16 545.41q-1.45 1.45-1.44-.6l.24-49.81Z"/><path fill="#e71d1c" d="M381.79 232.25q.55 4.98-.04 9.96-.55-4.98.04-9.96ZM381.96 480v15l-.26.72q-.15.41-.15-.03c-.01-2.18-.48-14.78.41-15.69Z"/></svg>