<svg xmlns="http://www.w3.org/2000/svg" viewBox="0 0 500 200"><g fill="none" stroke-width="2"><path stroke="#fcce95" d="M81.65 67.67Q64.5 81.66 59.68 102.93c-2.38 10.49 1.11 22.34 13.11 24.32q2.82.47 4.91-1.49 3.44-3.23 5.07-9.13" vector-effect="non-scaling-stroke"/><path stroke="#d79598" d="M82.77 116.63q5.28-11.41 5.2-23.34-.02-3.38-3.31-2.65c-.59.13-11.57 4.61-6.21-.9 4.4-4.53 16.77-15.76 23.5-11.34q1.86 1.22 1.08 3.3c-3.72 9.97-8.09 21.69-8.91 32.31" vector-effect="non-scaling-stroke"/><path stroke="#fcce95" d="M94.12 114.01c.17 1.9-.18 8.46 4.18 5.48q19.74-13.47 26.91-36.39" vector-effect="non-scaling-stroke"/><path stroke="#d79598" d="M125.21 83.1c7.86-21.88-8.44-35.67-28.96-25.36q-8.85 4.44-14.6 9.93" vector-effect="non-scaling-stroke"/><path stroke="#d4642d" d="M125.21 83.1q-10.75 20.4-31.09 30.91M82.77 116.63q-8.53-.67-12.69-6.7c-8.85-12.8 3.73-32.32 11.57-42.26" vector-effect="non-scaling-stroke"/><path stroke="#81adba" d="M137.93 90.67a1.12 1 7 0 0-1.07.75l-9.53 35.35a.59.47-81.1 0 0 .42.73h11.49a1 .6-79.3 0 0 .68-.77l9.55-35.49a.47.4 6.6 0 0-.47-.51l-11.07-.06M266.67 91.23l-9.61 35.54a.58.49-81 0 0 .44.73H269a.88.54-79.1 0 0 .61-.67l9.63-35.58a.5.43 6.9 0 0-.49-.54l-11.25-.12a.87.84-81.5 0 0-.83.64M320.8 107.46q6.5-1.48 8.49-7.18c2.94-8.48-4.86-9.49-10.79-9.52q-9.59-.04-19.2.01a.65.62 6.5 0 0-.61.46L289 127a.33.33-81.7 0 0 .31.42q11.61.33 23.16-.34 9.98-.58 13.49-9.1 2.38-5.79-2.51-8.82c-.75-.46-1.94-.7-2.75-1.28q-.41-.3.1-.42M174.7 118.35q-4.11 2.67-9.08 1.15c-7.02-2.16-3.76-11.89-.63-16.27q4.38-6.14 12.03-4.95 3.4.52 3.35 4.36a.59.38-89.3 0 0 .38.6l11.69-.01a.58.45-85 0 0 .46-.5c1-7.43-3.09-10.13-9.82-11.44-13.62-2.63-29 3.05-33.2 17.17-6.11 20.48 16.17 21.11 28.78 17.07q8.58-2.75 12.06-11.07a.33.28-76.3 0 0-.22-.45l-11.25-.22a1.11 1.08 21.2 0 0-.83.35c-1.3 1.42-2.2 3.23-3.72 4.21M201.77 91.26l-9.54 35.49a.6.55-82 0 0 .52.75H204a1 .7-80 0 0 .75-.75l9.63-35.53a.39.38 6.9 0 0-.38-.47h-11.5a.77.69 6.8 0 0-.73.51M255.27 114.05c-3.73-.39-7.59-.43-11.39-.24a.88.88-76.8 0 0-.74.46q-2.98 5.28-8.61 5.76c-14.72 1.25-7.73-22.67 5.91-21.94 3 .16 4.63 1.62 4.89 4.59a.62.4 86.5 0 0 .42.57h11.5a.69.65 2.8 0 0 .68-.58q.89-8.66-7.28-10.74c-13.94-3.55-30.22.7-35.51 15.52-7.06 19.79 12.7 21.93 25.92 18.86q10.32-2.4 14.51-11.75a.37.37 14.6 0 0-.3-.51M409.76 111.01l5.41-19.78a.42.38 6.8 0 0-.42-.48l-6.25-.01a.76.76 7.5 0 0-.73.56l-9.55 35.39a.67.4-78.8 0 0 .29.81H405a.89.57-79.4 0 0 .63-.67l3.08-11.6q.43-1.59 1.38-.29l8.75 11.99a1.36.86 64.5 0 0 .91.57l8.75.01q.9 0 .39-.67l-10.55-13.67a.5.49-36.2 0 1 .12-.7l14.3-10.22q.44-.32-.05-.38c-4.08-.51-7.99-.7-11.51 1.89q-5.28 3.88-10.54 7.63-1.25.9-.9-.38M347.76 124.75l-.42 2.07a.65.56 5.3 0 0 .66.68h6.25a.71.48-81 0 0 .52-.55q2.87-12.34 3.81-15.36c4.47-14.26-20.5-12.56-24.92-3.52a.47.42-75.1 0 0 .34.67l6 .16a1.16.4-57.2 0 0 .75-.59c2.95-3.82 13.24-4.58 10.55 2.39a.77.75 9.5 0 1-.7.48c-5.77.09-13.63-.03-18.4 2.98-4.79 3.02-6.64 11.96.77 13.39q7.98 1.53 14.27-3.01.67-.49.52.21M374.48 105.23l.74-2.49a.75.61-79.8 0 0-.53-.95l-6.44-.03a.92.43-78.1 0 0-.55.73l-6.25 24.25a.56.32-78.8 0 0 .23.67l6.82.07a.91.56-79.5 0 0 .64-.71c1.22-4.78 2.56-12.89 5.44-16.45 3.27-4.03 15.1-7.27 13.08 2.11q-1.33 6.17-3.77 14.52a.43.39-81.1 0 0 .36.55h6.5a.84.47-76.9 0 0 .56-.61q3.19-10.57 4.46-17.14c1.72-8.87-10.23-9.59-15.52-7.27q-1.05.46-5.26 2.96-.7.41-.51-.21" vector-effect="non-scaling-stroke"/><path stroke="#d79598" d="M109.728 60.897a8.55 4.9-44.6 0 0-9.528 2.514 8.55 4.9-44.6 0 0-2.648 9.492 8.55 4.9-44.6 0 0 9.528-2.514 8.55 4.9-44.6 0 0 2.648-9.492" vector-effect="non-scaling-stroke"/><path stroke="#81adba" d="m304.93 96.98-1.95 7.72a.41.37-81.2 0 0 .33.5c5.35.27 17.29 1.27 17.48-5.41q.09-3.15-3.04-3.17l-12.25-.09a.59.59-83.1 0 0-.57.45M301.05 111.56 298.5 121a.5.35 6.4 0 0 .51.45c5.18.18 15.34 1.52 18.06-4.03 4.06-8.29-10.72-6.68-14.72-6.67a1.4 1.08 5.7 0 0-1.3.81M337.61 117.46c-6.88 7.74 8.67 8.63 12.21-1.02a.45.4-76.1 0 0-.32-.6q-5.19-.5-10.27.52a3.29 1.59-59.9 0 0-1.62 1.1" vector-effect="non-scaling-stroke"/></g><path fill="#fff" d="M0 0h500v200H0V0Zm81.65 67.67Q64.5 81.66 59.68 102.93c-2.38 10.49 1.11 22.34 13.11 24.32q2.82.47 4.91-1.49 3.44-3.23 5.07-9.13 5.28-11.41 5.2-23.34-.02-3.38-3.31-2.65c-.59.13-11.57 4.61-6.21-.9 4.4-4.53 16.77-15.76 23.5-11.34q1.86 1.22 1.08 3.3c-3.72 9.97-8.09 21.69-8.91 32.31.17 1.9-.18 8.46 4.18 5.48q19.74-13.47 26.91-36.39c7.86-21.88-8.44-35.67-28.96-25.36q-8.85 4.44-14.6 9.93Zm56.28 23a1.12 1 7 0 0-1.07.75l-9.53 35.35a.59.47-81.1 0 0 .42.73h11.49a1 .6-79.3 0 0 .68-.77l9.55-35.49a.47.4 6.6 0 0-.47-.51l-11.07-.06Zm128.74.56-9.61 35.54a.58.49-81 0 0 .44.73H269a.88.54-79.1 0 0 .61-.67l9.63-35.58a.5.43 6.9 0 0-.49-.54l-11.25-.12a.87.84-81.5 0 0-.83.64Zm54.13 16.23q6.5-1.48 8.49-7.18c2.94-8.48-4.86-9.49-10.79-9.52q-9.59-.04-19.2.01a.65.62 6.5 0 0-.61.46L289 127a.33.33-81.7 0 0 .31.42q11.61.33 23.16-.34 9.98-.58 13.49-9.1 2.38-5.79-2.51-8.82c-.75-.46-1.94-.7-2.75-1.28q-.41-.3.1-.42Zm-146.1 10.89q-4.11 2.67-9.08 1.15c-7.02-2.16-3.76-11.89-.63-16.27q4.38-6.14 12.03-4.95 3.4.52 3.35 4.36a.59.38-89.3 0 0 .38.6l11.69-.01a.58.45-85 0 0 .46-.5c1-7.43-3.09-10.13-9.82-11.44-13.62-2.63-29 3.05-33.2 17.17-6.11 20.48 16.17 21.11 28.78 17.07q8.58-2.75 12.06-11.07a.33.28-76.3 0 0-.22-.45l-11.25-.22a1.11 1.08 21.2 0 0-.83.35c-1.3 1.42-2.2 3.23-3.72 4.21Zm27.07-27.09-9.54 35.49a.6.55-82 0 0 .52.75H204a1 .7-80 0 0 .75-.75l9.63-35.53a.39.38 6.9 0 0-.38-.47h-11.5a.77.69 6.8 0 0-.73.51Zm53.5 22.79c-3.73-.39-7.59-.43-11.39-.24a.88.88-76.8 0 0-.74.46q-2.98 5.28-8.61 5.76c-14.72 1.25-7.73-22.67 5.91-21.94 3 .16 4.63 1.62 4.89 4.59a.62.4 86.5 0 0 .42.57h11.5a.69.65 2.8 0 0 .68-.58q.89-8.66-7.28-10.74c-13.94-3.55-30.22.7-35.51 15.52-7.06 19.79 12.7 21.93 25.92 18.86q10.32-2.4 14.51-11.75a.37.37 14.6 0 0-.3-.51Zm154.49-3.04 5.41-19.78a.42.38 6.8 0 0-.42-.48l-6.25-.01a.76.76 7.5 0 0-.73.56l-9.55 35.39a.67.4-78.8 0 0 .29.81H405a.89.57-79.4 0 0 .63-.67l3.08-11.6q.43-1.59 1.38-.29l8.75 11.99a1.36.86 64.5 0 0 .91.57l8.75.01q.9 0 .39-.67l-10.55-13.67a.5.49-36.2 0 1 .12-.7l14.3-10.22q.44-.32-.05-.38c-4.08-.51-7.99-.7-11.51 1.89q-5.28 3.88-10.54 7.63-1.25.9-.9-.38Zm-62 13.74-.42 2.07a.65.56 5.3 0 0 .66.68h6.25a.71.48-81 0 0 .52-.55q2.87-12.34 3.81-15.36c4.47-14.26-20.5-12.56-24.92-3.52a.47.42-75.1 0 0 .34.67l6 .16a1.16.4-57.2 0 0 .75-.59c2.95-3.82 13.24-4.58 10.55 2.39a.77.75 9.5 0 1-.7.48c-5.77.09-13.63-.03-18.4 2.98-4.79 3.02-6.64 11.96.77 13.39q7.98 1.53 14.27-3.01.67-.49.52.21Zm26.72-19.52.74-2.49a.75.61-79.8 0 0-.53-.95l-6.44-.03a.92.43-78.1 0 0-.55.73l-6.25 24.25a.56.32-78.8 0 0 .23.67l6.82.07a.91.56-79.5 0 0 .64-.71c1.22-4.78 2.56-12.89 5.44-16.45 3.27-4.03 15.1-7.27 13.08 2.11q-1.33 6.17-3.77 14.52a.43.39-81.1 0 0 .36.55h6.5a.84.47-76.9 0 0 .56-.61q3.19-10.57 4.46-17.14c1.72-8.87-10.23-9.59-15.52-7.27q-1.05.46-5.26 2.96-.7.41-.51-.21Z"/><path fill="#af2b30" d="M125.21 83.1q-10.75 20.4-31.09 30.91c.82-10.62 5.19-22.34 8.91-32.31q.78-2.08-1.08-3.3c-6.73-4.42-19.1 6.81-23.5 11.34-5.36 5.51 5.62 1.03 6.21.9q3.29-.73 3.31 2.65.08 11.93-5.2 23.34-8.53-.67-12.69-6.7c-8.85-12.8 3.73-32.32 11.57-42.26q5.75-5.49 14.6-9.93c20.52-10.31 36.82 3.48 28.96 25.36Zm-15.482-22.203a8.55 4.9-44.6 0 0-9.528 2.514 8.55 4.9-44.6 0 0-2.648 9.492 8.55 4.9-44.6 0 0 9.528-2.514 8.55 4.9-44.6 0 0 2.648-9.492Z"/><ellipse fill="#fff" rx="8.55" ry="4.9" transform="rotate(-44.6 133.38 -92.9)"/><path fill="#f99d2a" d="M81.65 67.67c-7.84 9.94-20.42 29.46-11.57 42.26q4.16 6.03 12.69 6.7-1.63 5.9-5.07 9.13-2.09 1.96-4.91 1.49c-12-1.98-15.49-13.83-13.11-24.32q4.82-21.27 21.97-35.26ZM125.21 83.1q-7.17 22.92-26.91 36.39c-4.36 2.98-4.01-3.58-4.18-5.48q20.34-10.51 31.09-30.91Z"/><path fill="#035b74" d="m137.93 90.67 11.07.06a.47.4 6.6 0 1 .47.51l-9.55 35.49a1 .6-79.3 0 1-.68.77h-11.49a.59.47-81.1 0 1-.42-.73l9.53-35.35a1.12 1 7 0 1 1.07-.75ZM266.67 91.23a.87.84-81.5 0 1 .83-.64l11.25.12a.5.43 6.9 0 1 .49.54l-9.63 35.58a.88.54-79.1 0 1-.61.67h-11.5a.58.49-81 0 1-.44-.73l9.61-35.54ZM320.7 107.88c.81.58 2 .82 2.75 1.28q4.89 3.03 2.51 8.82-3.51 8.52-13.49 9.1-11.55.67-23.16.34a.33.33-81.7 0 1-.31-.42l9.69-35.77a.65.62 6.5 0 1 .61-.46q9.61-.05 19.2-.01c5.93.03 13.73 1.04 10.79 9.52q-1.99 5.7-8.49 7.18-.51.12-.1.42Zm-15.77-10.9-1.95 7.72a.41.37-81.2 0 0 .33.5c5.35.27 17.29 1.27 17.48-5.41q.09-3.15-3.04-3.17l-12.25-.09a.59.59-83.1 0 0-.57.45Zm-3.88 14.58L298.5 121a.5.35 6.4 0 0 .51.45c5.18.18 15.34 1.52 18.06-4.03 4.06-8.29-10.72-6.68-14.72-6.67a1.4 1.08 5.7 0 0-1.3.81ZM174.7 118.35c1.52-.98 2.42-2.79 3.72-4.21a1.11 1.08 21.2 0 1 .83-.35l11.25.22a.33.28-76.3 0 1 .22.45q-3.48 8.32-12.06 11.07c-12.61 4.04-34.89 3.41-28.78-17.07 4.2-14.12 19.58-19.8 33.2-17.17 6.73 1.31 10.82 4.01 9.82 11.44a.58.45-85 0 1-.46.5l-11.69.01a.59.38-89.3 0 1-.38-.6q.05-3.84-3.35-4.36-7.65-1.19-12.03 4.95c-3.13 4.38-6.39 14.11.63 16.27q4.97 1.52 9.08-1.15ZM201.77 91.26a.77.69 6.8 0 1 .73-.51H214a.39.38 6.9 0 1 .38.47l-9.63 35.53a1 .7-80 0 1-.75.75h-11.25a.6.55-82 0 1-.52-.75l9.54-35.49ZM243.88 113.81c3.8-.19 7.66-.15 11.39.24a.37.37 14.6 0 1 .3.51q-4.19 9.35-14.51 11.75c-13.22 3.07-32.98.93-25.92-18.86 5.29-14.82 21.57-19.07 35.51-15.52q8.17 2.08 7.28 10.74a.69.65 2.8 0 1-.68.58h-11.5a.62.4 86.5 0 1-.42-.57c-.26-2.97-1.89-4.43-4.89-4.59-13.64-.73-20.63 23.19-5.91 21.94q5.63-.48 8.61-5.76a.88.88-76.8 0 1 .74-.46ZM409.76 111.01q-.35 1.28.9.38 5.26-3.75 10.54-7.63c3.52-2.59 7.43-2.4 11.51-1.89q.49.06.05.38l-14.3 10.22a.5.49-36.2 0 0-.12.7l10.55 13.67q.51.67-.39.67l-8.75-.01a1.36.86 64.5 0 1-.91-.57l-8.75-11.99q-.95-1.3-1.38.29l-3.08 11.6a.89.57-79.4 0 1-.63.67h-6.49a.67.4-78.8 0 1-.29-.81l9.55-35.39a.76.76 7.5 0 1 .73-.56l6.25.01a.42.38 6.8 0 1 .42.48l-5.41 19.78Z"/><path fill="#fff" d="M304.93 96.98a.59.59-83.1 0 1 .57-.45l12.25.09q3.13.02 3.04 3.17c-.19 6.68-12.13 5.68-17.48 5.41a.41.37-81.2 0 1-.33-.5l1.95-7.72Z"/><path fill="#035b74" d="M347.76 124.75q.15-.7-.52-.21-6.29 4.54-14.27 3.01c-7.41-1.43-5.56-10.37-.77-13.39 4.77-3.01 12.63-2.89 18.4-2.98a.77.75 9.5 0 0 .7-.48c2.69-6.97-7.6-6.21-10.55-2.39a1.16.4-57.2 0 1-.75.59l-6-.16a.47.42-75.1 0 1-.34-.67c4.42-9.04 29.39-10.74 24.92 3.52q-.94 3.02-3.81 15.36a.71.48-81 0 1-.52.55H348a.65.56 5.3 0 1-.66-.68l.42-2.07Zm-10.15-7.29c-6.88 7.74 8.67 8.63 12.21-1.02a.45.4-76.1 0 0-.32-.6q-5.19-.5-10.27.52a3.29 1.59-59.9 0 0-1.62 1.1ZM374.99 105.44q4.21-2.5 5.26-2.96c5.29-2.32 17.24-1.6 15.52 7.27q-1.27 6.57-4.46 17.14a.84.47-76.9 0 1-.56.61h-6.5a.43.39-81.1 0 1-.36-.55q2.44-8.35 3.77-14.52c2.02-9.38-9.81-6.14-13.08-2.11-2.88 3.56-4.22 11.67-5.44 16.45a.91.56-79.5 0 1-.64.71l-6.82-.07a.56.32-78.8 0 1-.23-.67l6.25-24.25a.92.43-78.1 0 1 .55-.73l6.44.03a.75.61-79.8 0 1 .53.95l-.74 2.49q-.19.62.51.21Z"/><path fill="#fff" d="M301.05 111.56a1.4 1.08 5.7 0 1 1.3-.81c4-.01 18.78-1.62 14.72 6.67-2.72 5.55-12.88 4.21-18.06 4.03a.5.35 6.4 0 1-.51-.45l2.55-9.44ZM337.61 117.46a3.29 1.59-59.9 0 1 1.62-1.1q5.08-1.02 10.27-.52a.45.4-76.1 0 1 .32.6c-3.54 9.65-19.09 8.76-12.21 1.02Z"/></svg>