<svg xmlns="http://www.w3.org/2000/svg" viewBox="0 0 2664 786"><g fill="none" stroke-width="2"><path stroke="#809cba" d="M399.71 275.5c-11.76-9.72-22.5-20.09-35.14-28.73-30.31-20.71-66.14-28.57-101.57-18.51-42.82 12.16-75.95 35.99-92.68 78.48-17.89 45.43-14.85 98.01-7.1 145.14q1.34 8.19 3.72 14.96c11.21 31.95 28.07 61.34 54.59 82.46 54.03 43.03 125.46 34.27 176.18-9.3" vector-effect="non-scaling-stroke"/><path stroke="#762c53" d="m397.71 540-.99 122.56a.84.81-9.2 0 0 1.1.77l92.42-31.38a1.71 1.65 80.8 0 0 1.13-1.62L490.54 508" vector-effect="non-scaling-stroke"/><path stroke="#809cba" d="M490.54 508c22.65 28.31 53.12 53 87.45 63.03 40.24 11.75 80.58 2.49 110.37-26.52 29.85-29.09 44.44-70.3 50.26-110.75a.51.41-84 0 0-.37-.58l-42.01-1.83a1.46 1.38 13.1 0 0-1.36.8c-38.75 84.58-146.22 46.91-204.9 14.89" vector-effect="non-scaling-stroke"/><path stroke="#762c53" d="m489.98 447.04-.15-19.13" vector-effect="non-scaling-stroke"/><path stroke="#809cba" d="M489.83 427.91q23.83-28.89 51.48-54.1c18.36-16.74 40.45-32.81 63.76-40.45 37.43-12.28 67.84 1.96 91.6 31.36a1.48 1.34 68.4 0 0 1.08.53h38.5a.46.42 84.3 0 0 .4-.54c-12.82-71.96-50.48-129.78-127.79-140.06q-9.87-1.31-19.92-.56c-38.2 2.85-71.09 18.41-100.4 42.41" vector-effect="non-scaling-stroke"/><path stroke="#762c53" d="m488.54 266.5-1.1-125.49a.43.32 83.3 0 0-.42-.44l-85.96 28a1.01.76 83.7 0 0-.54.92l-.81 106.01" vector-effect="non-scaling-stroke"/><path stroke="#f68f98" d="M488.54 266.5c-21.1 18.56-38.54 39.26-53.93 62.71q-17.39 26.5-35.72 52.36" vector-effect="non-scaling-stroke"/><path stroke="#762c53" d="m398.89 381.57.32-36.32" vector-effect="non-scaling-stroke"/><path stroke="#f68f98" d="m399.21 345.25.5-69.75M489.83 427.91c-21.39 25.54-41.14 52.31-61.52 78.65q-15.43 19.93-30.6 33.44" vector-effect="non-scaling-stroke"/><path stroke="#809cba" d="M399.21 345.25c-26.45-15.22-55.32-23.82-85.48-27.07-48.43-5.21-111.94 13.67-121.73 69.57-7.04 40.21 20.52 75.62 59.77 82.7 64.76 11.69 113.32-42.32 147.12-88.88" vector-effect="non-scaling-stroke"/><path stroke="#f68f98" d="m489.98 447.04.28 60.44a.55.31 33.1 0 0 .17.33q.09.08.11.19" vector-effect="non-scaling-stroke"/></g><path fill="#003975" d="M343.81 720.7C226.22 693.35 119.79 615.93 75.26 501.09c-33.3-85.85-22.3-181.88 25.93-259.65C158.4 149.16 256.7 90.25 361.82 70.36 493.87 45.37 636.37 80.11 734.99 174c76.58 72.92 116.44 178.25 93.58 283.54-25.78 118.7-120.12 207.6-231.34 248.17-80.89 29.5-169.59 34.49-253.42 14.99Zm55.9-445.2c-11.76-9.72-22.5-20.09-35.14-28.73-30.31-20.71-66.14-28.57-101.57-18.51-42.82 12.16-75.95 35.99-92.68 78.48-17.89 45.43-14.85 98.01-7.1 145.14q1.34 8.19 3.72 14.96c11.21 31.95 28.07 61.34 54.59 82.46 54.03 43.03 125.46 34.27 176.18-9.3l-.99 122.56a.84.81-9.2 0 0 1.1.77l92.42-31.38a1.71 1.65 80.8 0 0 1.13-1.62L490.54 508c22.65 28.31 53.12 53 87.45 63.03 40.24 11.75 80.58 2.49 110.37-26.52 29.85-29.09 44.44-70.3 50.26-110.75a.51.41-84 0 0-.37-.58l-42.01-1.83a1.46 1.38 13.1 0 0-1.36.8c-38.75 84.58-146.22 46.91-204.9 14.89l-.15-19.13q23.83-28.89 51.48-54.1c18.36-16.74 40.45-32.81 63.76-40.45 37.43-12.28 67.84 1.96 91.6 31.36a1.48 1.34 68.4 0 0 1.08.53h38.5a.46.42 84.3 0 0 .4-.54c-12.82-71.96-50.48-129.78-127.79-140.06q-9.87-1.31-19.92-.56c-38.2 2.85-71.09 18.41-100.4 42.41l-1.1-125.49a.43.32 83.3 0 0-.42-.44l-85.96 28a1.01.76 83.7 0 0-.54.92l-.81 106.01Z"/><path fill="#ec1e30" d="M488.54 266.5c-21.1 18.56-38.54 39.26-53.93 62.71q-17.39 26.5-35.72 52.36l.32-36.32.5-69.75.81-106.01a1.01.76 83.7 0 1 .54-.92l85.96-28a.43.32 83.3 0 1 .42.44l1.1 125.49ZM1044.5 377.25V480a.5.5 0 0 1-.5.5h-71a.56.48-90 0 1-.48-.56l.05-257.63a.89.88 81.6 0 1 .62-.85l70.8-21.23a.39.36-9.5 0 1 .51.33V357.5q0 .88.57.07l60.21-85.05a1.11.57-62.9 0 1 .72-.52h78.25q.55 0 .19.46l-71.28 92.7a.68.62-43.6 0 0-.05.75l74.74 113.76q.55.83-.35.83h-85a.98.75 72 0 1-.74-.51l-56.71-102.79q-.55-1-.55.05ZM1440.19 322.74a.5.48 0 0 0-.5-.48l-38.44-.01a.52.5 0 0 1-.52-.5l-.07-49.25a.59.5 0 0 1 .59-.5h41.5a1 1 0 0 0 1-1v-45a1.15 1.07-11.1 0 1 .74-1.02l67.03-24.67a.52.5 80.3 0 1 .67.5l-.06 70.88a.43.3 0 0 0 .43.3l49.44.01a.5.5 0 0 1 .5.5v49.25a.5.5 0 0 1-.5.5h-49a1.08.97-2.4 0 0-1.09 1.06c.5 5.73.2 11.7.15 16.86q-.4 40.52.43 66.82c.67 21.23 14.15 34 35.66 29.39q6.48-1.38 13.18-2.67a1 .89-7.8 0 1 1.17.79l3.52 45.5a.55.42-4.1 0 1-.52.46q-7.48.47-23.56 2.45c-21.11 2.61-44.94 1.8-64.92-6.18-30.77-12.3-36.75-42.61-36.75-72.01q.01-41.07-.08-81.98ZM1886.06 377.19l.13.12a.29.16-78.5 0 1 .06.19V480a.5.5 0 0 1-.5.5h-71a.5.5 0 0 1-.5-.5V225.75a.79.74-10.7 0 1 .52-.71l70.97-24.81a.39.36-9.9 0 1 .51.33V357.5a.78.74 13.2 0 0 .45.68c1.72.82 2.97.28 4.02-1.3q28.16-42.12 56.19-84.32a1.24.78-65.9 0 1 .84-.56h78q.76 0 .2.73l-70.96 92.24a1.19.95 48.7 0 0 .06 1.26l78.22 113.74q.37.53-.27.53h-85.25a.97.68 71.2 0 1-.71-.52l-56.84-102.95a1.32.51 66.9 0 0-.7-.72q-1.86-.41-3.47.4a.34.24 51.2 0 0 .03.48Z"/><path fill="#fff" d="M489.83 427.91c-21.39 25.54-41.14 52.31-61.52 78.65q-15.43 19.93-30.6 33.44c-50.72 43.57-122.15 52.33-176.18 9.3-26.52-21.12-43.38-50.51-54.59-82.46q-2.38-6.77-3.72-14.96c-7.75-47.13-10.79-99.71 7.1-145.14 16.73-42.49 49.86-66.32 92.68-78.48 35.43-10.06 71.26-2.2 101.57 18.51 12.64 8.64 23.38 19.01 35.14 28.73l-.5 69.75c-26.45-15.22-55.32-23.82-85.48-27.07-48.43-5.21-111.94 13.67-121.73 69.57-7.04 40.21 20.52 75.62 59.77 82.7 64.76 11.69 113.32-42.32 147.12-88.88q18.33-25.86 35.72-52.36c15.39-23.45 32.83-44.15 53.93-62.71 29.31-24 62.2-39.56 100.4-42.41q10.05-.75 19.92.56c77.31 10.28 114.97 68.1 127.79 140.06a.46.42 84.3 0 1-.4.54h-38.5a1.48 1.34 68.4 0 1-1.08-.53c-23.76-29.4-54.17-43.64-91.6-31.36-23.31 7.64-45.4 23.71-63.76 40.45q-27.65 25.21-51.48 54.1Z"/><path fill="#ec1e30" d="M1166.21 350.2c15.73-70.92 93.18-96.89 156.8-80.8 62.56 15.83 97.71 74.76 80.68 137.5-10.82 39.85-44.45 65.3-83.68 73.65-64.85 13.8-143.66-11.29-155.23-85.81q-3.47-22.41 1.43-44.54Zm73.23 36.31c2.61 23.09 16.03 44.52 41.16 46.93 47.93 4.59 58.19-49.62 47.68-84.45-7.01-23.25-26.11-37.27-50.85-33.04-32.69 5.59-41.12 43.02-37.99 70.56ZM1720.98 449.62q-.1-1.87-1.16-.32c-11.75 17.1-27.54 29.93-49.09 33.37-49.1 7.83-105.9-14.58-96.4-75.16 8.97-57.26 83.43-62.05 127.18-59.68q7.86.42 15.27 3.1a.31.3 8.5 0 0 .41-.3c-1.29-25.24-17.39-34.51-40.62-35.41-25.21-.97-50.83 2.8-73.67 13.99a.63.56-14.5 0 1-.9-.46V280a1.2 1.08 80.4 0 1 .69-1.09q23.87-9.56 49.59-12.32c44.14-4.75 105.7-2.77 126.11 46.46q6.91 16.64 6.98 35.14.2 46.78.13 93.56-.03 18.49 3.38 38.23a.45.4 84.5 0 1-.38.52h-63.75a.47.42 87 0 1-.42-.43c-.27-2.64-.13-5.54-.61-8.08q-2.14-11.44-2.74-22.37Zm-79.14-38.63c-1.38 23.58 29.46 30.45 46.17 23.6 18.35-7.53 28.61-27.65 29-47.05a.51.49 1.1 0 0-.5-.5q-17.48-.24-34.94.36c-14.15.49-38.65 5.02-39.73 23.59Z"/><path fill="#003975" d="m399.21 345.25-.32 36.32c-33.8 46.56-82.36 100.57-147.12 88.88-39.25-7.08-66.81-42.49-59.77-82.7 9.79-55.9 73.3-74.78 121.73-69.57 30.16 3.25 59.03 11.85 85.48 27.07Z"/><path fill="#ec1e30" d="m489.83 427.91.15 19.13.28 60.44a.55.31 33.1 0 0 .17.33q.09.08.11.19l.83 122.33a1.71 1.65 80.8 0 1-1.13 1.62l-92.42 31.38a.84.81-9.2 0 1-1.1-.77l.99-122.56q15.17-13.51 30.6-33.44c20.38-26.34 40.13-53.11 61.52-78.65Z"/><path fill="#fff" d="M490.54 508q-.02-.11-.11-.19a.55.31 33.1 0 1-.17-.33l-.28-60.44c58.68 32.02 166.15 69.69 204.9-14.89a1.46 1.38 13.1 0 1 1.36-.8l42.01 1.83a.51.41-84 0 1 .37.58c-5.82 40.45-20.41 81.66-50.26 110.75-29.79 29.01-70.13 38.27-110.37 26.52-34.33-10.03-64.8-34.72-87.45-63.03Z"/><path fill="#003975" d="M1382.11 675.26c-13.23-13.79-26.27-27.85-39.22-41.92q-.63-.69-.63.22l-.01 41.69a.56.48 0 0 1-.56.48l-12.44.01a.49.49-.6 0 1-.5-.49v-130.5a.5.5 0 0 1 .5-.5h12.5a.75.5 90 0 1 .5.75v81.75q0 1.2.82.32l37.15-39.85a1.23.57-55.5 0 1 .78-.46l16.43.01q.91 0 .26.67l-40.71 41.79a.79.73-45.3 0 0-.03 1.06l43.61 44.4q1.04 1.06-.3 1.05l-17.33-.04a1.34.76 57.8 0 1-.82-.44ZM1719.5 601.44q0 .9.52.09 13.3-20.72 38.12-15.45c18.03 3.83 20.8 20.98 20.82 36.44q.03 25.59.36 51.96a1.24 1.06 89.7 0 1-1.07 1.26l-12.07-.05a.7.42-90 0 1-.42-.7q-.01-26.42-.07-52.73c-.08-38.66-45.5-31.4-45.93 1.56q-.33 25.71-.24 51.45a.52.48 0 0 1-.52.48l-11.99-.01a1.01.99 0 0 1-1.01-.99v-130a.5.5 0 0 1 .5-.5h12.5a.5.5 0 0 1 .5.5v56.69ZM2009.26 597.96q1.41 2.48 1.41-.46l.02-52.5a.75.56 90 0 1 .56-.75h12.25a.75.5 90 0 1 .5.75v130a.65.49-90 0 1-.49.65l-12.45.06a.76.53-89.5 0 1-.53-.77l.14-13.44a.93.56-81.3 0 0-.31-.76q-.31-.17-.58.31-7.07 12.19-20.51 15.43c-22.46 5.41-40.61-7.34-44.92-29.49-5.53-28.5 6.16-63.43 40.66-61.98 10.08.42 19.27 4.23 24.25 12.95Zm-50.52 49.6c10.21 30.93 51.61 21.2 51.7-10.31.02-7.59.95-16.97-1.21-23.53-3.24-9.84-11.37-16.17-21.72-17.31-28.14-3.1-35.36 31.16-28.77 51.15ZM2549.76 627.25q0 .82.63.14l37.49-40.25a1.22 1.15-67.6 0 1 .87-.39l16.44.01q.83 0 .21.64l-40.92 42.07a.58.49 45.4 0 0 .06.75l44.1 44.89q.61.63-.2.63l-17.44.01a1.82 1.53-18.2 0 1-1.25-.5l-39.31-41.95q-.68-.73-.68.26l-.01 41.69a.48.31-90 0 1-.31.48l-12.44.02a.75.5 90 0 1-.5-.75V544.75a.5.5 0 0 1 .5-.5h12.25a.75.53 90 0 1 .53.75l-.02 82.25Z"/><circle cx="1813.26" cy="554.87" r="8.79" fill="#003975"/><path fill="#003975" d="M991.94 614.81q-.73-1.34-.73.13l.03 60.06a.73.55 90 0 1-.55.73l-12.69.02a.75.5 90 0 1-.5-.75V551.75a.5.5 0 0 1 .5-.5h12.75a.56.48 90 0 1 .48.56l-.02 57.19q0 .84.52.24l49.9-57.37a1.38.64-56.5 0 1 .86-.53l16.2-.05q.47-.01.06.45l-53.2 58.81a.68.58 45.5 0 0 .06.85l56.92 63.82q.47.53-.28.53H1044a1.39.62 56.8 0 1-.87-.56q-24.58-28.74-49.15-57.41-1.18-1.39-2.04-2.97ZM1472.25 568l-.18.06a.3.22 79.6 0 0-.14.29q.76 8.58.77 14.21.09 46.1.04 92.2a1.01.98-89.7 0 1-.98 1h-12.01a.57.5-90 0 1-.5-.57V551.75a.5.5 0 0 1 .5-.5h16.75a1.18.98 76 0 1 .96.71q15.48 34.85 31.02 69.4 7.1 15.77 13.54 32.15.22.56.44 0 2.64-6.77 5.58-13.34 19.82-44.27 39.7-87.68a2.21 1.96 11 0 1 1.94-1.15l15.01-.09a.56.56 0 0 1 .56.56V674.5a1.21 1.08 89.8 0 1-1.07 1.21l-12.18.03a.66.47 90 0 1-.47-.66q-.06-42.81-.03-85.57.01-7.22 1.25-20.27a.7.49-82.6 0 0-.38-.73q-.39-.06-.53.57-1.61 6.92-3.84 11.88-21.13 46.93-42.26 93.85a1.17.36-68.1 0 1-.67.83h-5.64a.97.21 66.8 0 1-.52-.73c-13.09-28.8-25.73-57.89-39.27-86.46q-4.59-9.69-7.14-20.13a.36.16 75.7 0 0-.25-.32ZM2296.73 610.05c20.9 1.92 30.74 23.12 24.06 41.79-4.1 11.47-13.91 19.33-25.65 22.31q-4.73 1.21-15.02 1.42-16.18.34-32.37.13a.51.5 90 0 1-.5-.51V552a.69.68 89.6 0 1 .67-.69q18.86-.26 37.83.18c35.49.82 41.93 44.18 10.79 57.34q-2.34.98.19 1.22Zm-.67-41.36c-9.15-6.38-23.75-4.87-34.53-4.65a.54.46-.6 0 0-.53.46v39.75a.54.46.6 0 0 .53.46c13.11.23 30.48 2.16 37.95-11.09 3.93-6.98 4.17-19.65-3.42-24.93Zm10.82 62.37c-6.21-16.63-31.96-13.4-45.36-13.64a.58.51-89.5 0 0-.52.58v44.25a.62.59-89 0 0 .57.62c11.01.35 24.91 1.56 35.08-3.26 10.94-5.18 14.22-17.86 10.23-28.55ZM1197.49 598.38a.47.42 0 0 0-.47.42q-.06 25.58.02 51.14c.02 6.89 1.37 13.73 8.93 15.79q6.32 1.71 13.01-1.97a.36.31-16.7 0 1 .53.24l-.01 10.5a.88.46-17.8 0 1-.57.58q-7.05 3.04-15.74 2.22c-14.78-1.39-19.38-12.13-19.41-25.26q-.06-26.52-.02-53.06a.51.48 0 0 0-.51-.48H1169a.75.75 0 0 1-.75-.75V587.5a.75.72 0 0 1 .75-.72l14.25.11a.64.5-90 0 0 .5-.64V565.5a.76.67-10.1 0 1 .53-.66l12.2-3.9a.54.4 83.9 0 1 .52.56v24.75a.59.56 90 0 0 .56.59l21.37-.05a.71.57-90 0 1 .57.71v10.25a.75.72 0 0 1-.75.72l-21.26-.09ZM1106 677.21c-28.79-3.42-40.11-29.8-35.67-55.77 4.58-26.78 25.99-39.95 52.42-35.87 26.44 4.09 35.47 28.52 32.97 52.18-2.82 26.6-22.63 42.67-49.72 39.46Zm-11.36-17.09c7.36 6.2 18.54 7.48 27.38 5.04 11.94-3.3 17.93-12.74 19.73-24.66 2.54-16.85-1.17-39.94-21.22-43.56-21.25-3.83-34.96 8.67-37.04 28.57-1.33 12.69.85 25.94 11.15 34.61ZM1287.72 662.17q-11.18 17.08-30.13 15.43c-19.01-1.66-29.41-15.81-23.99-34.57 3.46-11.95 13.92-17.4 25.41-19.25q14.3-2.3 28.69-4.12a.54.53-3.7 0 0 .47-.53c-.05-15.26-6.39-23.97-22.51-22.51q-13.46 1.22-24.02 10.22-.77.65-.77-.15l.1-12.69a1.53 1.5 75.6 0 1 .76-1.32q17.71-10.17 36.91-7.08c17.05 2.73 23.18 15.89 23.17 31.9q-.03 28.87-.07 57.77a.69.6 3 0 1-.75.59q-5.99-.57-11.99-.11a.74.69-88.8 0 1-.73-.82q.49-5.21-.11-10.43a1.53.45-58.5 0 1 .25-.92q.39-.81-.08-1.47a.4.35-46.8 0 0-.61.06Zm-40.25-18.36c-6.03 15.87 8.39 25.57 22.65 21.53 15.58-4.41 19.41-19.52 17.99-34.07a.62.61-6.3 0 0-.69-.55q-11.3 1.47-22.18 2.99c-7.01.99-15.14 3.17-17.77 10.1ZM1665.31 618.97c1.67-31.31-31.75-24.71-46.39-12.03q-.67.58-.67-.19V593.5a1.02.52-24 0 1 .54-.67q17.19-10.21 37.18-7.32c18.01 2.61 22.85 16.78 22.97 32.82q.23 28.35.27 56.59a.8.77-90 0 1-.77.8l-12.19.02a.5.49 0 0 1-.5-.49v-13a.51.46 89.5 0 0-.47-.51q-.35 0-.51.29c-14.28 25.69-59.14 19.47-55.01-14.39 1.81-14.85 13.43-21.57 27-23.89q13.99-2.4 27.87-4.05a.78.77-2.2 0 0 .68-.73Zm-40.7 25.31c-9.7 28.54 38.98 30.4 40.89-2.79q.1-1.61-.05-10.26a.45.45 86 0 0-.5-.44q-11.87 1.41-23.7 3.22c-6.92 1.07-14.29 3.36-16.64 10.27ZM2163.27 662.12q-11.07 18.03-32.98 15.13-18.12-2.4-21.95-19.02c-4.09-17.77 7.6-31.19 24.66-34.2q12.24-2.17 30.1-4.4a.58.58-2.9 0 0 .51-.56c.9-31.16-31.33-25.21-46.42-12.25q-.78.67-.77-.26l.06-13.06a.98.65-21 0 1 .49-.69q14.47-8.51 30.71-7.91c21.77.81 29.49 13.44 29.54 33.9q.06 28.22.02 56.39a.55.54 0 0 1-.55.54l-12.19.02a.74.72-89.6 0 1-.72-.75l.1-12.75q.01-1.13-.61-.13Zm-37.87-22c-7.17 8.73-3.95 23.23 8.64 25.54 16.47 3.01 29.14-8.86 29.61-24.93q.14-4.83.07-9.6a.41.4-3.2 0 0-.45-.4q-10.4 1.31-20.77 2.77c-5.89.83-13.28 1.97-17.1 6.62ZM2395.85 662.99q-.01-2.34-1.17-.32c-14.34 25.02-58.32 18.62-54.58-14.88 1.67-14.92 13.65-22.11 27.9-24.3q13.54-2.08 27.12-3.86a.61.61 87.7 0 0 .52-.57q.24-3.92-.94-9.05c-5.12-22.27-33.82-13.07-45.53-3.07q-.67.58-.67-.19V593.5a1 .52-23.5 0 1 .53-.66c22.45-13.18 60.14-13.48 60.2 22.64q.04 29.88.01 59.79a.49.47 0 0 1-.49.47l-12.06-.05a.8.39 0 0 1-.8-.39l-.04-12.31Zm-27.69-28.36c-24.69 5.12-15.63 37.99 9.85 30.62 10.12-2.93 17.06-12.48 17.73-23q.13-2.02-.04-10.97a.47.46 86.6 0 0-.51-.46q-18.09 1.95-27.03 3.81ZM2479.19 596.63c-17.59-3.11-29.25 11.78-29.35 27.93q-.17 25.35-.07 50.71a.45.33 89.2 0 1-.33.46l-12.44.02a.67.48 90 0 1-.48-.67q.01-35.41-.22-70.76-.05-8.55.26-17.12a.47.44-88.6 0 1 .44-.45h12.25a.5.5 0 0 1 .5.5v14q0 1.51.72.23c7.22-12.83 22.08-19.23 36.46-15.91 17.57 4.05 22.25 19.54 22.29 35.52q.07 27.08.02 54.18a.49.48 0 0 1-.49.48h-12.25a.66.46-90 0 1-.46-.66q-.06-25.45-.02-50.83c.01-11.88-3.26-25.23-16.83-27.63ZM1862.25 601.25q0 1.22.65.17 11.66-18.93 34.35-16.08c19.6 2.47 24.43 19.74 24.47 36.63q.07 26.64.02 53.3a.49.49-89.4 0 1-.49.48H1909a.65.46-90 0 1-.46-.65q-.07-25.08-.03-50.09c.02-12.36-2.93-25.8-17.04-28.5-17.12-3.28-28.85 11.97-29.01 27.56q-.26 25.58-.2 51.2a.51.47-.5 0 1-.51.48h-12.25a.75.75 0 0 1-.75-.75v-87.5a.75.75 0 0 1 .75-.75h12.25a.5.5 0 0 1 .5.5v14ZM2066.75 605.25l.19-.06a.44.26-82.3 0 0 .21-.27c4.37-14.36 15.82-21.83 30.8-18.67a.97.79 7 0 1 .78.81l.01 12.69a.46.4 14.1 0 1-.65.33c-22.21-10-31.37 13.11-31.5 30.17q-.18 22.5-.06 45.02a.42.33-89.4 0 1-.34.42l-12.7-.13a.62.5-89.5 0 1-.49-.62V587.5a.75.75 0 0 1 .75-.75h12a.75.75 0 0 1 .75.75V605a.24.19 82.6 0 0 .25.25Z"/><rect width="13.48" height="89" x="1806.25" y="586.75" fill="#003975" rx=".9"/></svg>