<svg xmlns="http://www.w3.org/2000/svg" viewBox="0 0 450 172"><g fill="none" stroke-width="2"><path stroke="#80cbe7" d="M80.31 0C36.53 4.28 3.53 36.15 0 80.19M92.31 0q41.78 4.27 64.78 36.87c15.68 22.21 19.67 50.99 10.91 76.73-11.12 32.64-39.34 54.4-73.56 58.4" vector-effect="non-scaling-stroke"/><path stroke="#80cbe7" d="m91.49 172-.27-65.94a1 1 0 0 1 .76-.97c13.43-3.35 18.92-21.25 9.57-31.64-14.98-16.64-41.71-1.19-33.96 19.98q2.97 8.11 12.25 11.63a1.01 1 10.6 0 1 .65.94l-.06 66M77.94 172C35.2 167 3.65 135.02 0 92.19" vector-effect="non-scaling-stroke"/><path stroke="gray" d="M428.86 110.06a.37.37 0 0 0 .38-.37l.02-8.45a.37.37 0 0 1 .63-.26l8.34 8.68a.37.37 0 0 0 .26.11l10.91.16a.37.37 0 0 0 .27-.63l-11.45-11.45a.37.37 0 0 1 .01-.53l10.8-10.18a.37.37 0 0 0-.25-.64h-10.54a.37.37 0 0 0-.26.1l-8.18 7.93a.37.37 0 0 1-.63-.27l.29-21.8a.37.37 0 0 0-.38-.38l-7.72.24a.37.37 0 0 0-.36.37v36.77a.37.37 0 0 0 .36.37l7.5.23M197.95 79.66c-2.56 2.86-2.7 7.84-1.15 11.09 1.9 3.96 6.72 4.86 10.87 6.08q4.85 1.42 1.74 5.41a.99.93-78.7 0 1-.48.34q-3.28 1.06-5.64.1-.72-.3-3.99-2.48a1 .99-59 0 0-1.43.36l-3.01 5.53a1 1 0 0 0 .3 1.29c9.25 6.55 25.38 4.8 24.46-10.15-.4-6.57-6.26-7.7-12.62-9.84a1.07 1.03-7.4 0 1-.5-.37q-2.61-3.71 2.31-4.52 2.41-.4 5.35 1.63a1 .99 30 0 0 1.47-.39l2.42-5.14a1 .99-63 0 0-.42-1.31q-9.37-5.09-18.09.15c-.4.24-1.11 1.68-1.59 2.22M351.13 90.65q2.85-4.01 1.64-8.76c-.77-3.02-3.48-5.83-6.59-5.84q-7.57-.03-15.14-.11a1 .99.6 0 0-1.01.98q-.15 11.6.1 23.15c.05 2.26-.36 6.01.03 9.06a1 .99-4.4 0 0 1.02.87q6.03-.17 12.06-.26c8.69-.12 14.82-2.84 12.57-13.03q-.67-3.02-4.26-4.56a1 1 0 0 1-.42-1.5M224.25 86.1a.4.4 0 0 1-.4.4h-1.7a.4.4 0 0 0-.4.4v6.5a.4.4 0 0 0 .45.39l1.6-.2a.4.4 0 0 1 .45.39v15.43a.4.4 0 0 0 .4.4h7.81a.4.4 0 0 0 .4-.4l.17-15.26a.4.4 0 0 1 .4-.4h3.86a.4.4 0 0 0 .4-.4l.02-6.45a.4.4 0 0 0-.4-.4h-3.97a.4.4 0 0 1-.4-.4l-.06-5.92a.4.4 0 0 0-.39-.39l-7.84-.05a.4.4 0 0 0-.4.4v5.96M280.7 93.75l2.72.01a1.01 1-89.4 0 0 1-.99l.11-5.25a1.01 1.01 0 0 0-1.01-1.02h-2.83a1.01 1-89.7 0 1-1-1.02l.08-4.71a1 1 0 0 0-1-1.02h-6.05a1.01 1 90 0 0-1 1.01l.04 4.74a1.01 1-89.7 0 1-1.01 1.01l-.99-.01a1 1 0 0 0-1.01 1v5.02a1.01 1-6.1 0 0 1.22.98q1.98-.44 1.85 1.71-.47 8.32-.06 13.86a1.01 1 87.8 0 0 1 .93h6.01a1 1 0 0 0 1-1.01l-.07-14.23a1 1 0 0 1 1-1.01" vector-effect="non-scaling-stroke"/><path stroke="gray" d="M257.5 109.13v.35a.51.51 0 0 0 .51.52h6.48a1 1 0 0 0 1-1l.01-21.5a1 1 0 0 0-1-1h-6.2a.8.79 89.3 0 0-.79.82v.4q.02.71-.6.37c-18.21-10.15-25.75 18.52-9.3 22.22q4.49 1.01 8.64-1.84 1.26-.88 1.25.66M295.09 99.97l15.21-.19a1.01 1-2.2 0 0 .99-1.06q-.85-13.65-15.02-12.5-8.84.72-10.62 8.95c-2.81 13.04 11.12 18.91 21.07 13.32q2.75-1.54 3.57-4.87a1 1 0 0 0-.98-1.24l-6.34.09a1.04 1.02-69.2 0 0-.74.34c-1.93 2.2-6.06 2.57-7.54-.43q-.24-.48-.48-.97a1 1 0 0 1 .88-1.44M377.7 109.15l.09.36a.64.64 0 0 0 .62.49h6.82a1.01 1-89.7 0 0 1-1l.08-21.49a1 1 0 0 0-1-1l-6.59-.03a.99.99 0 0 0-.99.83l-.04.26q-.19 1.14-1.06.37-1.6-1.43-3.36-1.72c-14.41-2.36-19.28 16.32-8.23 22.95q5.34 3.2 11.47-.51a.8.8 0 0 1 1.19.49M399.5 87.31v-.29a.51.51 0 0 0-.51-.52h-6.49a1 1 0 0 0-1 1V109a1 .99 89.7 0 0 1 1h6.09a1 1 0 0 0 1-1l-.02-12.25q0-3.02 2.58-3.82c3.63-1.12 5.39.65 5.35 4.25q-.06 5.76.08 11.55a1 .99-89.4 0 0 .95.98l6.1.27a1 1 0 0 0 1.05-.97q.29-11.98.01-15.7c-.24-3.05-2.16-5.75-5.16-6.79q-5.25-1.82-9.76 1.44-1.28.93-1.27-.65M236.51 147.5H240a1 1 0 0 0 1-1v-4.95a1 1 0 0 0-.98-1l-3.83-.07a1 .99-86.5 0 1-.97-1.1l.55-5.52a1 .99 8.8 0 1 1.2-.87l2.81.59a1.01 1-83.6 0 0 1.21-.97l.06-4.41q.05-2.91-3.1-2.55-12.21 1.39-10.87 13.88.18 1.75-1.41 1.01c-1.97-.9-1.61 1.76-1.68 2.78q-.11 1.62.12 3.28a1 .99 83.6 0 0 1.07.86l.74-.06a1 .99-2.4 0 1 1.08.99v14.36a1 1 0 0 0 1 1h6.46a1 1 0 0 0 1-1l.05-14.25a1.01 1-89.7 0 1 1-1M319.75 141.5q-6.59-3.53-12.14.3c-4.47 3.09-6.24 8.49-4.91 13.71 1.89 7.39 10.93 12.14 17.5 6.97q.98-.77 1.03.47l.02.29a.64.63 87.7 0 0 .65.61l6.62-.13a1 1 0 0 0 .98-1v-35.19a1 .99-89.7 0 0-.98-1l-6.24-.1a1 1 0 0 0-1.02 1l-.03 13.19a1.01 1.01 0 0 1-1.48.88M338.678 136.39a4.87 4.56 89.2 0 0 4.492-4.934 4.87 4.56 89.2 0 0-4.628-4.805 4.87 4.56 89.2 0 0-4.492 4.933 4.87 4.56 89.2 0 0 4.628 4.805M268.35 130.058a.3.3 0 0 0-.3-.3l-8.22-.015a.3.3 0 0 0-.3.3l-.06 33.4a.3.3 0 0 0 .3.3l8.22.014a.3.3 0 0 0 .3-.3l.06-33.4M222.91 152.24a14.16 12.46.2 0 0-14.117-12.51 14.16 12.46.2 0 0-14.203 12.41 14.16 12.46.2 0 0 14.117 12.51 14.16 12.46.2 0 0 14.203-12.41M282.16 141.49l-.09-.38a.81.8-6.2 0 0-.79-.63l-6.54.06a1 1 0 0 0-.99 1v21.2a1 1 0 0 0 1 1l6.42.03a1 .99.9 0 0 1-.96q.16-4.53.03-9.05c-.07-2.37.05-5.24 2.18-6.64q2.45-1.61 5.03.86a1.05 1 21.1 0 1 .3.64q.58 7.01.16 14.04a1 1 0 0 0 .98 1.06l6.55.12a1.01 1.01 0 0 0 1.02-.97c.27-7.87 3.26-25.96-11.49-22.69q-1.74.39-3.8 1.71a.64.64 0 0 1-.97-.4M365.02 163.27l.02.31a.26.25-1.1 0 0 .26.24l7.44.01a1 1 0 0 0 1-1l.01-21.33a1 1 0 0 0-1-1h-6.69a.99.99 0 0 0-.96.75q-.41 1.58-1.81-.13-.16-.2-.41-.29c-12.36-4.83-21.35 9.27-14.04 19.03q5.62 7.52 15.27 2.87a.64.63 75.5 0 1 .91.54M342.99 140.97a.47.47 0 0 0-.47-.47h-7.8a.47.47 0 0 0-.47.47v22.36a.47.47 0 0 0 .47.47h7.8a.47.47 0 0 0 .47-.47v-22.36M344.62 87.15q2.45-3.11-1.27-3.79l-2.92-.53a1.01 1-85 0 0-1.18.99v4.35a1 .99-89.4 0 0 .97 1q2.74.07 4.4-2.02M340.04 102.71c5.33 1.17 10.42-4.78 4.29-6.55q-1.27-.36-4.15-.17a1 .99 88.2 0 0-.93 1v4.74a1.02 1 6.5 0 0 .79.98" vector-effect="non-scaling-stroke"/><path stroke="gray" d="M257.04 98.24a4.95 4.95 0 0 0-4.95-4.95 4.95 4.95 0 0 0-4.95 4.95 4.95 4.95 0 0 0 4.95 4.95 4.95 4.95 0 0 0 4.95-4.95M295.09 92.96q-1.94 1.67.62 1.76l5.76.2q2.9.1.68-1.77-3.68-3.09-7.06-.19M378.008 98.103a5.23 4.85-1.5 0 0-5.355-4.711 5.23 4.85-1.5 0 0-5.101 4.985 5.23 4.85-1.5 0 0 5.355 4.711 5.23 4.85-1.5 0 0 5.101-4.985M321.23 152.08a5.1 5.1 0 0 0-5.1-5.1 5.1 5.1 0 0 0-5.1 5.1 5.1 5.1 0 0 0 5.1 5.1 5.1 5.1 0 0 0 5.1-5.1M213.73 152.09a5.02 5.02 0 0 0-5.02-5.02 5.02 5.02 0 0 0-5.02 5.02 5.02 5.02 0 0 0 5.02 5.02 5.02 5.02 0 0 0 5.02-5.02M365.33 152.06a5.05 5.05 0 0 0-5.05-5.05 5.05 5.05 0 0 0-5.05 5.05 5.05 5.05 0 0 0 5.05 5.05 5.05 5.05 0 0 0 5.05-5.05" vector-effect="non-scaling-stroke"/></g><path fill="#fff" d="M0 0h80.31C36.53 4.28 3.53 36.15 0 80.19V0Z"/><path fill="#0097cf" d="M80.31 0h12q41.78 4.27 64.78 36.87c15.68 22.21 19.67 50.99 10.91 76.73-11.12 32.64-39.34 54.4-73.56 58.4h-2.95l-.27-65.94a1 1 0 0 1 .76-.97c13.43-3.35 18.92-21.25 9.57-31.64-14.98-16.64-41.71-1.19-33.96 19.98q2.97 8.11 12.25 11.63a1.01 1 10.6 0 1 .65.94l-.06 66h-2.49C35.2 167 3.65 135.02 0 92.19v-12C3.53 36.15 36.53 4.28 80.31 0Z"/><path fill="#fff" d="M92.31 0H450v172H94.44c34.22-4 62.44-25.76 73.56-58.4 8.76-25.74 4.77-54.52-10.91-76.73Q134.09 4.27 92.31 0Zm336.55 110.06a.37.37 0 0 0 .38-.37l.02-8.45a.37.37 0 0 1 .63-.26l8.34 8.68a.37.37 0 0 0 .26.11l10.91.16a.37.37 0 0 0 .27-.63l-11.45-11.45a.37.37 0 0 1 .01-.53l10.8-10.18a.37.37 0 0 0-.25-.64h-10.54a.37.37 0 0 0-.26.1l-8.18 7.93a.37.37 0 0 1-.63-.27l.29-21.8a.37.37 0 0 0-.38-.38l-7.72.24a.37.37 0 0 0-.36.37v36.77a.37.37 0 0 0 .36.37l7.5.23Zm-230.91-30.4c-2.56 2.86-2.7 7.84-1.15 11.09 1.9 3.96 6.72 4.86 10.87 6.08q4.85 1.42 1.74 5.41a.99.93-78.7 0 1-.48.34q-3.28 1.06-5.64.1-.72-.3-3.99-2.48a1 .99-59 0 0-1.43.36l-3.01 5.53a1 1 0 0 0 .3 1.29c9.25 6.55 25.38 4.8 24.46-10.15-.4-6.57-6.26-7.7-12.62-9.84a1.07 1.03-7.4 0 1-.5-.37q-2.61-3.71 2.31-4.52 2.41-.4 5.35 1.63a1 .99 30 0 0 1.47-.39l2.42-5.14a1 .99-63 0 0-.42-1.31q-9.37-5.09-18.09.15c-.4.24-1.11 1.68-1.59 2.22Zm153.18 10.99q2.85-4.01 1.64-8.76c-.77-3.02-3.48-5.83-6.59-5.84q-7.57-.03-15.14-.11a1 .99.6 0 0-1.01.98q-.15 11.6.1 23.15c.05 2.26-.36 6.01.03 9.06a1 .99-4.4 0 0 1.02.87q6.03-.17 12.06-.26c8.69-.12 14.82-2.84 12.57-13.03q-.67-3.02-4.26-4.56a1 1 0 0 1-.42-1.5ZM224.25 86.1a.4.4 0 0 1-.4.4h-1.7a.4.4 0 0 0-.4.4v6.5a.4.4 0 0 0 .45.39l1.6-.2a.4.4 0 0 1 .45.39v15.43a.4.4 0 0 0 .4.4h7.81a.4.4 0 0 0 .4-.4l.17-15.26a.4.4 0 0 1 .4-.4h3.86a.4.4 0 0 0 .4-.4l.02-6.45a.4.4 0 0 0-.4-.4h-3.97a.4.4 0 0 1-.4-.4l-.06-5.92a.4.4 0 0 0-.39-.39l-7.84-.05a.4.4 0 0 0-.4.4v5.96Zm56.45 7.65 2.72.01a1.01 1-89.4 0 0 1-.99l.11-5.25a1.01 1.01 0 0 0-1.01-1.02h-2.83a1.01 1-89.7 0 1-1-1.02l.08-4.71a1 1 0 0 0-1-1.02h-6.05a1.01 1 90 0 0-1 1.01l.04 4.74a1.01 1-89.7 0 1-1.01 1.01l-.99-.01a1 1 0 0 0-1.01 1v5.02a1.01 1-6.1 0 0 1.22.98q1.98-.44 1.85 1.71-.47 8.32-.06 13.86a1.01 1 87.8 0 0 1 .93h6.01a1 1 0 0 0 1-1.01l-.07-14.23a1 1 0 0 1 1-1.01Zm-23.2 15.38v.35a.51.51 0 0 0 .51.52h6.48a1 1 0 0 0 1-1l.01-21.5a1 1 0 0 0-1-1h-6.2a.8.79 89.3 0 0-.79.82v.4q.02.71-.6.37c-18.21-10.15-25.75 18.52-9.3 22.22q4.49 1.01 8.64-1.84 1.26-.88 1.25.66Zm37.59-9.16 15.21-.19a1.01 1-2.2 0 0 .99-1.06q-.85-13.65-15.02-12.5-8.84.72-10.62 8.95c-2.81 13.04 11.12 18.91 21.07 13.32q2.75-1.54 3.57-4.87a1 1 0 0 0-.98-1.24l-6.34.09a1.04 1.02-69.2 0 0-.74.34c-1.93 2.2-6.06 2.57-7.54-.43q-.24-.48-.48-.97a1 1 0 0 1 .88-1.44Zm82.61 9.18.09.36a.64.64 0 0 0 .62.49h6.82a1.01 1-89.7 0 0 1-1l.08-21.49a1 1 0 0 0-1-1l-6.59-.03a.99.99 0 0 0-.99.83l-.04.26q-.19 1.14-1.06.37-1.6-1.43-3.36-1.72c-14.41-2.36-19.28 16.32-8.23 22.95q5.34 3.2 11.47-.51a.8.8 0 0 1 1.19.49Zm21.8-21.84v-.29a.51.51 0 0 0-.51-.52h-6.49a1 1 0 0 0-1 1V109a1 .99 89.7 0 0 1 1h6.09a1 1 0 0 0 1-1l-.02-12.25q0-3.02 2.58-3.82c3.63-1.12 5.39.65 5.35 4.25q-.06 5.76.08 11.55a1 .99-89.4 0 0 .95.98l6.1.27a1 1 0 0 0 1.05-.97q.29-11.98.01-15.7c-.24-3.05-2.16-5.75-5.16-6.79q-5.25-1.82-9.76 1.44-1.28.93-1.27-.65ZM236.51 147.5H240a1 1 0 0 0 1-1v-4.95a1 1 0 0 0-.98-1l-3.83-.07a1 .99-86.5 0 1-.97-1.1l.55-5.52a1 .99 8.8 0 1 1.2-.87l2.81.59a1.01 1-83.6 0 0 1.21-.97l.06-4.41q.05-2.91-3.1-2.55-12.21 1.39-10.87 13.88.18 1.75-1.41 1.01c-1.97-.9-1.61 1.76-1.68 2.78q-.11 1.62.12 3.28a1 .99 83.6 0 0 1.07.86l.74-.06a1 .99-2.4 0 1 1.08.99v14.36a1 1 0 0 0 1 1h6.46a1 1 0 0 0 1-1l.05-14.25a1.01 1-89.7 0 1 1-1Zm83.24-6q-6.59-3.53-12.14.3c-4.47 3.09-6.24 8.49-4.91 13.71 1.89 7.39 10.93 12.14 17.5 6.97q.98-.77 1.03.47l.02.29a.64.63 87.7 0 0 .65.61l6.62-.13a1 1 0 0 0 .98-1v-35.19a1 .99-89.7 0 0-.98-1l-6.24-.1a1 1 0 0 0-1.02 1l-.03 13.19a1.01 1.01 0 0 1-1.48.88Zm18.928-5.11a4.87 4.56 89.2 0 0 4.492-4.934 4.87 4.56 89.2 0 0-4.628-4.805 4.87 4.56 89.2 0 0-4.492 4.933 4.87 4.56 89.2 0 0 4.628 4.805Zm-70.329-6.332a.3.3 0 0 0-.3-.3l-8.22-.015a.3.3 0 0 0-.3.3l-.058 33.4a.3.3 0 0 0 .3.3l8.22.014a.3.3 0 0 0 .3-.3l.058-33.4Zm-45.44 22.181a14.16 12.46.2 0 0-14.115-12.509 14.16 12.46.2 0 0-14.204 12.41 14.16 12.46.2 0 0 14.117 12.51 14.16 12.46.2 0 0 14.203-12.41Zm59.251-10.749-.09-.38a.81.8-6.2 0 0-.79-.63l-6.54.06a1 1 0 0 0-.99 1v21.2a1 1 0 0 0 1 1l6.42.03a1 .99.9 0 0 1-.96q.16-4.53.03-9.05c-.07-2.37.05-5.24 2.18-6.64q2.45-1.61 5.03.86a1.05 1 21.1 0 1 .3.64q.58 7.01.16 14.04a1 1 0 0 0 .98 1.06l6.55.12a1.01 1.01 0 0 0 1.02-.97c.27-7.87 3.26-25.96-11.49-22.69q-1.74.39-3.8 1.71a.64.64 0 0 1-.97-.4Zm82.86 21.78.02.31a.26.25-1.1 0 0 .26.24l7.44.01a1 1 0 0 0 1-1l.01-21.33a1 1 0 0 0-1-1h-6.69a.99.99 0 0 0-.96.75q-.41 1.58-1.81-.13-.16-.2-.41-.29c-12.36-4.83-21.35 9.27-14.04 19.03q5.62 7.52 15.27 2.87a.64.63 75.5 0 1 .91.54Zm-22.03-22.3a.47.47 0 0 0-.47-.47h-7.8a.47.47 0 0 0-.47.47v22.36a.47.47 0 0 0 .47.47h7.8a.47.47 0 0 0 .47-.47v-22.36Z"/><path fill="#fff" d="M91.49 172H80.43l.06-66a1.01 1 10.6 0 0-.65-.94q-9.28-3.52-12.25-11.63c-7.75-21.17 18.98-36.62 33.96-19.98 9.35 10.39 3.86 28.29-9.57 31.64a1 1 0 0 0-.76.97l.27 65.94Z"/><path d="m428.86 110.06-7.5-.23a.37.37 0 0 1-.36-.37V72.69a.37.37 0 0 1 .36-.37l7.72-.24a.37.37 0 0 1 .38.38l-.29 21.8a.37.37 0 0 0 .63.27l8.18-7.93a.37.37 0 0 1 .26-.1h10.54a.37.37 0 0 1 .25.64l-10.8 10.18a.37.37 0 0 0-.01.53l11.45 11.45a.37.37 0 0 1-.27.63l-10.91-.16a.37.37 0 0 1-.26-.11l-8.34-8.68a.37.37 0 0 0-.63.26l-.02 8.45a.37.37 0 0 1-.38.37ZM197.95 79.66c.48-.54 1.19-1.98 1.59-2.22q8.72-5.24 18.09-.15a1 .99-63 0 1 .42 1.31l-2.42 5.14a1 .99 30 0 1-1.47.39q-2.94-2.03-5.35-1.63-4.92.81-2.31 4.52a1.07 1.03-7.4 0 0 .5.37c6.36 2.14 12.22 3.27 12.62 9.84.92 14.95-15.21 16.7-24.46 10.15a1 1 0 0 1-.3-1.29l3.01-5.53a1 .99-59 0 1 1.43-.36q3.27 2.18 3.99 2.48 2.36.96 5.64-.1a.99.93-78.7 0 0 .48-.34q3.11-3.99-1.74-5.41c-4.15-1.22-8.97-2.12-10.87-6.08-1.55-3.25-1.41-8.23 1.15-11.09ZM351.55 92.15q3.59 1.54 4.26 4.56c2.25 10.19-3.88 12.91-12.57 13.03q-6.03.09-12.06.26a1 .99-4.4 0 1-1.02-.87c-.39-3.05.02-6.8-.03-9.06q-.25-11.55-.1-23.15a1 .99.6 0 1 1.01-.98q7.57.08 15.14.11c3.11.01 5.82 2.82 6.59 5.84q1.21 4.75-1.64 8.76a1 1 0 0 0 .42 1.5Zm-6.93-5q2.45-3.11-1.27-3.79l-2.92-.53a1.01 1-85 0 0-1.18.99v4.35a1 .99-89.4 0 0 .97 1q2.74.07 4.4-2.02Zm-4.58 15.56c5.33 1.17 10.42-4.78 4.29-6.55q-1.27-.36-4.15-.17a1 .99 88.2 0 0-.93 1v4.74a1.02 1 6.5 0 0 .79.98ZM224.25 86.1v-5.96a.4.4 0 0 1 .4-.4l7.84.05a.4.4 0 0 1 .39.39l.06 5.92a.4.4 0 0 0 .4.4h3.97a.4.4 0 0 1 .4.4l-.02 6.45a.4.4 0 0 1-.4.4h-3.86a.4.4 0 0 0-.4.4l-.17 15.26a.4.4 0 0 1-.4.4h-7.81a.4.4 0 0 1-.4-.4V93.98a.4.4 0 0 0-.45-.39l-1.6.2a.4.4 0 0 1-.45-.39v-6.5a.4.4 0 0 1 .4-.4h1.7a.4.4 0 0 0 .4-.4ZM279.7 94.76l.07 14.23a1 1 0 0 1-1 1.01h-6.01a1.01 1 87.8 0 1-1-.93q-.41-5.54.06-13.86.13-2.15-1.85-1.71a1.01 1-6.1 0 1-1.22-.98V87.5a1 1 0 0 1 1.01-1l.99.01a1.01 1-89.7 0 0 1.01-1.01l-.04-4.74a1.01 1 90 0 1 1-1.01h6.05a1 1 0 0 1 1 1.02l-.08 4.71a1.01 1-89.7 0 0 1 1.02h2.83a1.01 1.01 0 0 1 1.01 1.02l-.11 5.25a1.01 1-89.4 0 1-1 .99l-2.72-.01a1 1 0 0 0-1 1.01Z"/><path fill="#fff" d="M344.62 87.15q-1.66 2.09-4.4 2.02a1 .99-89.4 0 1-.97-1v-4.35a1.01 1-85 0 1 1.18-.99l2.92.53q3.72.68 1.27 3.79Z"/><path d="M256.25 108.47q-4.15 2.85-8.64 1.84c-16.45-3.7-8.91-32.37 9.3-22.22q.62.34.6-.37v-.4a.8.79 89.3 0 1 .79-.82h6.2a1 1 0 0 1 1 1l-.01 21.5a1 1 0 0 1-1 1h-6.48a.51.51 0 0 1-.51-.52v-.35q.01-1.54-1.25-.66Zm.79-10.23a4.95 4.95 0 0 0-4.95-4.95 4.95 4.95 0 0 0-4.95 4.95 4.95 4.95 0 0 0 4.95 4.95 4.95 4.95 0 0 0 4.95-4.95ZM294.21 101.41q.24.49.48.97c1.48 3 5.61 2.63 7.54.43a1.04 1.02-69.2 0 1 .74-.34l6.34-.09a1 1 0 0 1 .98 1.24q-.82 3.33-3.57 4.87c-9.95 5.59-23.88-.28-21.07-13.32q1.78-8.23 10.62-8.95 14.17-1.15 15.02 12.5a1.01 1-2.2 0 1-.99 1.06l-15.21.19a1 1 0 0 0-.88 1.44Zm.88-8.45q-1.94 1.67.62 1.76l5.76.2q2.9.1.68-1.77-3.68-3.09-7.06-.19ZM376.51 108.66q-6.13 3.71-11.47.51c-11.05-6.63-6.18-25.31 8.23-22.95q1.76.29 3.36 1.72.87.77 1.06-.37l.04-.26a.99.99 0 0 1 .99-.83l6.59.03a1 1 0 0 1 1 1l-.08 21.49a1.01 1-89.7 0 1-1 1h-6.82a.64.64 0 0 1-.62-.49l-.09-.36a.8.8 0 0 0-1.19-.49Zm1.498-10.557a5.23 4.85-1.5 0 0-5.355-4.711 5.23 4.85-1.5 0 0-5.101 4.985 5.23 4.85-1.5 0 0 5.355 4.711 5.23 4.85-1.5 0 0 5.101-4.985ZM400.77 87.96q4.51-3.26 9.76-1.44c3 1.04 4.92 3.74 5.16 6.79q.28 3.72-.01 15.7a1 1 0 0 1-1.05.97l-6.1-.27a1 .99-89.4 0 1-.95-.98q-.14-5.79-.08-11.55c.04-3.6-1.72-5.37-5.35-4.25q-2.58.8-2.58 3.82l.02 12.25a1 1 0 0 1-1 1h-6.09a1 .99 89.7 0 1-1-1V87.5a1 1 0 0 1 1-1h6.49a.51.51 0 0 1 .51.52v.29q-.01 1.58 1.27.65Z"/><path fill="#fff" d="M295.09 92.96q3.38-2.9 7.06.19 2.22 1.87-.68 1.77l-5.76-.2q-2.56-.09-.62-1.76ZM0 92.19C3.65 135.02 35.2 167 77.94 172H0V92.19Z"/><circle cx="252.09" cy="98.24" r="4.95" fill="#fff"/><ellipse fill="#fff" rx="5.23" ry="4.85" transform="rotate(-1.5 3938.667 -14189.214)"/><path fill="#fff" d="M344.33 96.16c6.13 1.77 1.04 7.72-4.29 6.55a1.02 1 6.5 0 1-.79-.98v-4.74a1 .99 88.2 0 1 .93-1q2.88-.19 4.15.17Z"/><path d="m235.51 148.5-.05 14.25a1 1 0 0 1-1 1H228a1 1 0 0 1-1-1v-14.36a1 .99-2.4 0 0-1.08-.99l-.74.06a1 .99 83.6 0 1-1.07-.86q-.23-1.66-.12-3.28c.07-1.02-.29-3.68 1.68-2.78q1.59.74 1.41-1.01-1.34-12.49 10.87-13.88 3.15-.36 3.1 2.55l-.06 4.41a1.01 1-83.6 0 1-1.21.97l-2.81-.59a1 .99 8.8 0 0-1.2.87l-.55 5.52a1 .99-86.5 0 0 .97 1.1l3.83.07a1 1 0 0 1 .98 1v4.95a1 1 0 0 1-1 1h-3.49a1.01 1-89.7 0 0-1 1ZM321.23 140.62l.03-13.19a1 1 0 0 1 1.02-1l6.24.1a1 .99-89.7 0 1 .98 1v35.19a1 1 0 0 1-.98 1l-6.62.13a.64.63 87.7 0 1-.65-.61l-.02-.29q-.05-1.24-1.03-.47c-6.57 5.17-15.61.42-17.5-6.97-1.33-5.22.44-10.62 4.91-13.71q5.55-3.83 12.14-.3a1.01 1.01 0 0 0 1.48-.88Zm0 11.46a5.1 5.1 0 0 0-5.1-5.1 5.1 5.1 0 0 0-5.1 5.1 5.1 5.1 0 0 0 5.1 5.1 5.1 5.1 0 0 0 5.1-5.1Z"/><ellipse rx="4.87" ry="4.56" transform="rotate(89.2 102.62 237.446)"/><rect width="8.82" height="34" x="-4.41" y="-17" rx=".3" transform="rotate(.1 -83949.58 151282.628)"/><path d="M222.91 152.24a14.16 12.46.2 0 1-14.203 12.41 14.16 12.46.2 0 1-14.117-12.51 14.16 12.46.2 0 1 14.203-12.41 14.16 12.46.2 0 1 14.117 12.51Zm-9.18-.15a5.02 5.02 0 0 0-5.02-5.02 5.02 5.02 0 0 0-5.02 5.02 5.02 5.02 0 0 0 5.02 5.02 5.02 5.02 0 0 0 5.02-5.02ZM283.13 141.89q2.06-1.32 3.8-1.71c14.75-3.27 11.76 14.82 11.49 22.69a1.01 1.01 0 0 1-1.02.97l-6.55-.12a1 1 0 0 1-.98-1.06q.42-7.03-.16-14.04a1.05 1 21.1 0 0-.3-.64q-2.58-2.47-5.03-.86c-2.13 1.4-2.25 4.27-2.18 6.64q.13 4.52-.03 9.05a1 .99.9 0 1-1 .96l-6.42-.03a1 1 0 0 1-1-1v-21.2a1 1 0 0 1 .99-1l6.54-.06a.81.8-6.2 0 1 .79.63l.09.38a.64.64 0 0 0 .97.4ZM364.11 162.73q-9.65 4.65-15.27-2.87c-7.31-9.76 1.68-23.86 14.04-19.03q.25.09.41.29 1.4 1.71 1.81.13a.99.99 0 0 1 .96-.75h6.69a1 1 0 0 1 1 1l-.01 21.33a1 1 0 0 1-1 1l-7.44-.01a.26.25-1.1 0 1-.26-.24l-.02-.31a.64.63 75.5 0 0-.91-.54Zm1.22-10.67a5.05 5.05 0 0 0-5.05-5.05 5.05 5.05 0 0 0-5.05 5.05 5.05 5.05 0 0 0 5.05 5.05 5.05 5.05 0 0 0 5.05-5.05Z"/><rect width="8.74" height="23.3" x="334.25" y="140.5" rx=".47"/><circle cx="208.71" cy="152.09" r="5.02" fill="#fff"/><circle cx="360.28" cy="152.06" r="5.05" fill="#fff"/><circle cx="316.13" cy="152.08" r="5.1" fill="#fff"/></svg>