<svg version="1.2" xmlns="http://www.w3.org/2000/svg" viewBox="0 0 1024 1024" width="1024" height="1024">
	<title>adaptive-icon</title>
	<style>
		.s0 { fill: #34a853 } 
		.s1 { fill: #fbbc04 } 
		.s2 { fill: #ea4335 } 
		.s3 { fill: #4285f4 } 
	</style>
	<g id="Background">
		<path id="Path 0" class="s0" d="m332.5 279.2c-2.8 0.5-8.1 1.8-12 3-3.9 1.1-9.9 3.6-13.5 5.7-3.6 2-8.5 5.2-11 7.2-2.5 1.9-6.4 5.5-8.7 8-2.3 2.4-6 6.9-8.3 9.9-2.2 3-5.6 8.6-7.5 12.5-1.8 3.9-4.4 9.9-5.7 13.5-2.2 6.3-2.3 7.6-2.5 45.5l-0.3 39c3.9-13.2 6.5-20.1 8.3-24 1.8-3.9 4.7-9 6.4-11.5 1.6-2.5 5.7-7.4 8.9-10.9 3.2-3.5 8.6-8.3 11.9-10.6 3.3-2.3 7.8-5.2 10-6.3 2.2-1.1 6.9-2.9 10.5-4.1 3.6-1.1 10-2.5 14.2-3.1 5.2-0.6 65.4-1 177.6-1 116.3 0 172.4 0.3 178.2 1.1 4.7 0.6 11.2 2 14.5 3.1 3.3 1.1 7.8 3 10 4.1 2.2 1 6.7 3.9 10 6.2 3.3 2.4 8.1 6.5 10.6 9.2 2.6 2.6 6.3 7.1 8.4 9.8 2.1 2.8 5.1 7.7 6.8 11 1.7 3.3 4.5 10.5 6.3 16l3.3 10-0.4-77c-4.4-12.4-7.3-18.9-9.1-22.5-1.9-3.6-5.8-9.6-8.7-13.4-2.8-3.9-8.3-9.6-12.2-12.8-3.9-3.2-10.1-7.5-14-9.5-3.9-2-10.8-4.8-15.5-6.2l-8.5-2.6c-283.9-0.2-355 0.1-358 0.7z"/>
		<path id="Path 1" class="s1" d="m330.5 353.5c-4.4 0.7-10.3 2-13 3-2.8 1-6.8 2.6-9 3.7-2.2 1.1-6.7 4-10 6.3-3.3 2.3-8.7 7.1-11.9 10.6-3.2 3.5-7.3 8.4-8.9 10.9-1.7 2.5-4.6 7.6-6.4 11.5-1.7 3.9-4.4 11.1-5.8 16-2.4 8.6-2.5 10.2-2.5 33.8 0 13.6 0.3 24.9 0.8 25.1 0.4 0.2 1.8 0.6 3.2 0.9 2.2 0.6 2.7 0.1 4.5-3.6 1-2.3 4-7.3 6.6-11.2 2.6-3.9 8-10.2 12-14 4.1-3.9 10.1-8.7 13.4-10.6 3.3-1.9 8.5-4.5 11.5-5.7 3-1.2 8.6-2.9 12.5-3.7 6-1.3 31.7-1.5 183.5-1.5 151.8 0 177.5 0.2 183.5 1.5 3.9 0.8 9.5 2.5 12.5 3.7 3 1.2 8.2 3.8 11.5 5.7 3.3 2 9.1 6.5 12.9 10.1 3.8 3.6 8.8 9.2 11.1 12.5 2.4 3.3 5.4 8.4 6.9 11.3 1.4 2.8 3.2 5.2 3.9 5.2 0.6 0 2.2-1 3.4-2.2 2.2-2.2 2.3-2.9 2.3-25.8v-23.5c-4.8-15.5-7.7-22.9-9.5-26.5-1.8-3.6-4.9-8.8-7-11.5-2.1-2.7-5.8-7.2-8.4-9.8-2.5-2.7-7.3-6.8-10.6-9.2-3.3-2.3-7.8-5.2-10-6.2-2.2-1.1-6.7-3-10-4.1-3.3-1.1-9.8-2.5-14.5-3.1-5.9-0.8-61.7-1.1-179.5-1-134 0.1-172.7 0.4-179 1.4z"/>
		<path id="Path 2" class="s2" d="m327 426.6c-3.6 0.7-9 2.4-12 3.6-3 1.2-8.2 3.8-11.5 5.7-3.3 2-9.1 6.5-12.9 10.1-3.8 3.6-8.8 9.2-11.1 12.5-2.4 3.3-5.6 8.4-7.1 11.3-1.6 2.9-2.7 5.5-2.4 5.7 0.3 0.3 18.9 5.2 41.5 11 22.6 5.8 57.9 14.9 78.5 20.1 20.6 5.3 51.4 13.2 68.5 17.5 17.1 4.4 52.1 13.3 78 19.8 25.9 6.6 50.5 12.4 54.8 13 4.2 0.6 11.9 1.1 17 1.1 5 0 13-0.7 17.7-1.5 4.7-0.8 11.2-2.3 14.5-3.2 3.3-0.9 9.4-3 13.5-4.8 4.1-1.7 11.3-5.3 15.9-8 4.6-2.8 25.2-18.4 45.7-34.8l37.4-29.7c-4.9-8.9-8.2-14.2-10.5-17.5-2.3-3.3-7.3-8.9-11.1-12.5-3.8-3.6-9.6-8.1-12.9-10.1-3.3-1.9-8.5-4.5-11.5-5.7-3-1.2-8.6-2.9-12.5-3.7-6-1.3-31.6-1.5-184-1.4-148.2 0-178.1 0.3-183.5 1.5z"/>
		<path id="Path 3" class="s3" d="m718.3 503.2c-22 17.8-43.8 34.5-48.4 37.3-4.6 2.7-11.8 6.3-15.9 8-4.1 1.8-10.2 3.9-13.5 4.8-3.3 0.9-9.8 2.4-14.5 3.2-4.7 0.8-12.7 1.5-17.7 1.5-5.1 0-12.8-0.5-17-1.1-4.3-0.6-28.9-6.4-54.8-13-25.8-6.5-60.9-15.4-78-19.8-17-4.3-49.7-12.7-72.5-18.5-22.8-5.8-59.8-15.3-82.2-21.1l-40.8-10.5c0 197.7 0 199.6 2.1 207 1.1 4.1 3.5 10.6 5.3 14.5 1.8 3.9 5.5 10.4 8.2 14.5 2.8 4.1 8.1 10.2 11.7 13.5 3.7 3.3 9.5 7.7 12.9 9.8 3.5 2 10.1 5.2 14.8 7l8.5 3.2c311.3 0.5 362.8 0.3 367.5-0.6 3.6-0.6 10.3-2.7 15-4.8 4.7-2 10.5-5 13-6.7 2.5-1.7 7.1-5.5 10.4-8.5 3.2-3 8.7-9.7 12.1-14.9 3.4-5.2 7.6-13.1 9.3-17.5 1.6-4.4 3.5-10.5 4.1-13.5 0.9-4 1.1-32.2 0.8-105.8l-0.4-100.2z"/>
	</g>
</svg>